<svg width="100%" height="100%" viewBox="0 0 1440 737" fill="none" xmlns="http://www.w3.org/2000/svg">
	<g id="Frame 2018777675" clip-path="url(#clip0_5160_42264)">
		<rect width="1440" height="737" fill="white"/>
		<g id="cakeLayers">
			<rect id="botLayer" width="350" height="350" rx="20" transform="matrix(0.866025 0.5 -0.866025 0.5 719.609 386.652)" fill="black"/>
			<rect id="lastBotLayer" y="2" width="346" height="346" rx="18" transform="matrix(0.866025 0.5 -0.866025 0.5 721.341 321.652)" fill="#B6BEDC" stroke="white" stroke-width="4"/>
			<rect id="midLAyer" y="2" width="346" height="346" rx="18" transform="matrix(0.866025 0.5 -0.866025 0.5 721.341 249.652)" fill="#EEF1F9" stroke="white" stroke-width="4"/>
			<rect id="topLayer" y="2" width="346" height="346" rx="18" transform="matrix(0.866025 0.5 -0.866025 0.5 721.341 177.653)" fill="white" stroke="white" stroke-width="4"/>
		</g>
		<g id="illusLeft">
			<path id="Ellipse 1" d="M291.614 239.01C291.614 279.051 258.91 311.516 218.559 311.516C178.209 311.516 145.505 279.051 145.505 239.01C145.505 198.97 178.209 166.505 218.559 166.505C258.91 166.505 291.614 198.97 291.614 239.01Z" stroke="#B6BEDC" stroke-width="1.00902"/>
			<path id="Ellipse 5" d="M136.338 295.5C136.338 367.205 77.9862 425.338 6 425.338C-65.9862 425.338 -124.338 367.205 -124.338 295.5C-124.338 223.795 -65.9862 165.662 6 165.662C77.9862 165.662 136.338 223.795 136.338 295.5Z" stroke="#B6BEDC" stroke-width="1.32366"/>
			<path id="Ellipse 2" d="M264.546 484.5C264.546 542.513 217.294 589.546 159 589.546C100.706 589.546 53.4538 542.513 53.4538 484.5C53.4538 426.487 100.706 379.454 159 379.454C217.294 379.454 264.546 426.487 264.546 484.5Z" stroke="#B6BEDC" stroke-width="0.907639"/>
			<path id="Ellipse 3" d="M294.499 331C294.499 392.023 244.583 441.499 183 441.499C121.417 441.499 71.5012 392.023 71.5012 331C71.5012 269.977 121.417 220.501 183 220.501C244.583 220.501 294.499 269.977 294.499 331Z" stroke="#B6BEDC" stroke-width="1.00244"/>
			<ellipse id="Ellipse 4" cx="49" cy="596" rx="67.4279" ry="67.4279" stroke="#B6BEDC" stroke-width="1.14414"/>
			<g id="Group">
				<g id="Group_2">
					<g id="Group_3">
						<path id="Vector" d="M40.7804 571.995C40.7123 571.964 40.1976 571.655 39.433 571.655C38.3977 571.655 37.6804 572.379 37.6804 573.356C37.6804 574.305 38.3662 575.058 39.433 575.058C40.186 575.058 40.7098 574.759 40.7804 574.72V576.434C40.5787 576.49 40.0307 576.66 39.3209 576.66C37.5177 576.66 35.9395 575.414 35.9395 573.356C35.9395 571.453 37.3691 570.057 39.3209 570.057C40.0706 570.057 40.6268 570.241 40.7804 570.286V571.995Z" fill="#D5DAEE"/>
					</g>
					<g id="Group_4">
						<path id="Vector_2" d="M24.077 571.995C24.0123 571.964 23.4984 571.655 22.7329 571.655C21.6952 571.655 20.9779 572.379 20.9779 573.356C20.9779 574.305 21.6628 575.058 22.7329 575.058C23.4851 575.058 24.009 574.759 24.077 574.72V576.434C23.8778 576.49 23.3307 576.66 22.615 576.66C20.816 576.66 19.2402 575.414 19.2402 573.356C19.2402 571.453 20.6682 570.057 22.615 570.057C23.373 570.057 23.9251 570.241 24.077 570.286V571.995Z" fill="#D5DAEE"/>
					</g>
					<g id="Group_5">
						<path id="Vector_3" d="M45.8114 571.681C44.8625 571.681 44.1585 572.431 44.1585 573.356C44.1585 574.286 44.8625 575.035 45.8114 575.035C46.7612 575.035 47.4677 574.286 47.4677 573.356C47.4677 572.431 46.7612 571.681 45.8114 571.681ZM49.1621 573.356C49.1621 575.181 47.7624 576.66 45.8114 576.66C43.8621 576.66 42.4648 575.181 42.4648 573.356C42.4648 571.536 43.8621 570.057 45.8114 570.057C47.7624 570.057 49.1621 571.536 49.1621 573.356Z" fill="#D5DAEE"/>
					</g>
					<g id="Group_6">
						<path id="Vector_4" d="M33.9442 571.618C33.9226 571.611 33.2477 571.425 32.6939 571.425C32.053 571.425 31.7043 571.639 31.7043 571.949C31.7043 572.336 32.1734 572.47 32.4357 572.556L32.8799 572.695C33.9177 573.028 34.3917 573.744 34.3917 574.52C34.3917 576.122 32.9895 576.66 31.7658 576.66C30.9131 576.66 30.1203 576.502 30.0381 576.487V575.019C30.1801 575.054 30.85 575.256 31.5491 575.256C32.3436 575.256 32.7122 575.022 32.7122 574.658C32.7122 574.336 32.3959 574.152 31.9966 574.025C31.9002 573.993 31.7566 573.947 31.6537 573.914C30.7637 573.631 30.0215 573.104 30.0215 572.05C30.0215 570.855 30.909 570.057 32.3859 570.057C33.1638 570.057 33.8977 570.244 33.9442 570.257V571.618Z" fill="#D5DAEE"/>
					</g>
					<g id="Group_7">
						<path id="Vector_5" d="M17.5405 563.318C17.5405 562.88 17.1852 562.522 16.7451 562.522C16.3118 562.522 15.9531 562.88 15.9531 563.318V564.991C15.9531 565.432 16.3118 565.789 16.7451 565.789C17.1852 565.789 17.5405 565.432 17.5405 564.991V563.318Z" fill="#D5DAEE"/>
					</g>
					<g id="Group_8">
						<path id="Vector_6" d="M21.9054 561.121C21.9054 560.682 21.5501 560.327 21.1134 560.327C20.6734 560.327 20.3164 560.682 20.3164 561.121V564.991C20.3164 565.433 20.6734 565.789 21.1134 565.789C21.5501 565.789 21.9054 565.433 21.9054 564.991V561.121Z" fill="#D5DAEE"/>
					</g>
					<g id="Group_9">
						<path id="Vector_7" d="M26.2679 558.117C26.2679 557.675 25.9142 557.319 25.475 557.319C25.0383 557.319 24.6797 557.675 24.6797 558.117V566.584C24.6797 567.024 25.0383 567.383 25.475 567.383C25.9142 567.383 26.2679 567.024 26.2679 566.584V558.117Z" fill="#D5DAEE"/>
					</g>
					<g id="Group_10">
						<path id="Vector_8" d="M30.6334 561.121C30.6334 560.682 30.2781 560.327 29.8422 560.327C29.4022 560.327 29.0469 560.682 29.0469 561.121V564.991C29.0469 565.433 29.4022 565.789 29.8422 565.789C30.2781 565.789 30.6334 565.433 30.6334 564.991V561.121Z" fill="#D5DAEE"/>
					</g>
					<g id="Group_11">
						<path id="Vector_9" d="M34.9931 563.318C34.9931 562.88 34.6402 562.522 34.2035 562.522C33.7652 562.522 33.4082 562.88 33.4082 563.318V564.991C33.4082 565.432 33.7652 565.789 34.2035 565.789C34.6402 565.789 34.9931 565.432 34.9931 564.991V563.318Z" fill="#D5DAEE"/>
					</g>
					<g id="Group_12">
						<path id="Vector_10" d="M39.3614 561.121C39.3614 560.682 39.0069 560.327 38.5685 560.327C38.1318 560.327 37.7773 560.682 37.7773 561.121V564.991C37.7773 565.433 38.1318 565.789 38.5685 565.789C39.0069 565.789 39.3614 565.433 39.3614 564.991V561.121Z" fill="#D5DAEE"/>
					</g>
					<g id="Group_13">
						<path id="Vector_11" d="M43.7255 558.117C43.7255 557.675 43.3735 557.319 42.9318 557.319C42.4984 557.319 42.1406 557.675 42.1406 558.117V566.584C42.1406 567.024 42.4984 567.383 42.9318 567.383C43.3735 567.383 43.7255 567.024 43.7255 566.584V558.117Z" fill="#D5DAEE"/>
					</g>
					<g id="Group_14">
						<path id="Vector_12" d="M48.0934 561.121C48.0934 560.682 47.7364 560.327 47.2881 560.327C46.8539 560.327 46.4961 560.682 46.4961 561.121V564.991C46.4961 565.433 46.8539 565.789 47.2881 565.789C47.7364 565.789 48.0934 565.433 48.0934 564.991V561.121Z" fill="#D5DAEE"/>
					</g>
					<g id="Group_15">
						<path id="Vector_13" d="M52.449 563.318C52.449 562.88 52.092 562.522 51.6553 562.522C51.217 562.522 50.8633 562.88 50.8633 563.318V564.991C50.8633 565.432 51.217 565.789 51.6553 565.789C52.092 565.789 52.449 565.432 52.449 564.991V563.318Z" fill="#D5DAEE"/>
					</g>
					<path id="Vector_14" d="M27.8766 576.547H26.2734V570.17H27.8766V576.547Z" fill="#D5DAEE"/>
				</g>
				<g id="Group_16">
					<g id="Group_17">
						<path id="Vector_15" d="M20.8239 590.137L17.4117 581.665V590.137H16.6953V580.709H17.7764L21.2276 589.352L24.4835 580.709H25.5257V590.137H24.8225V581.73L21.605 590.137H20.8239Z" fill="#D5DAEE"/>
					</g>
					<g id="Group_18">
						<path id="Vector_16" d="M33.0602 588.277C32.7343 589.521 31.6922 590.332 30.2463 590.332C28.4105 590.332 27.0293 589.063 27.0293 586.732C27.0293 584.401 28.3704 583.132 30.1163 583.132C31.8491 583.132 33.1775 584.31 33.1775 586.903H27.7462C27.8115 588.84 28.9046 589.731 30.2595 589.731C31.2759 589.731 32.0569 589.179 32.3175 588.277H33.0602ZM27.7594 586.312H32.4474C32.357 584.57 31.3795 583.708 30.1163 583.708C28.8794 583.708 27.8894 584.61 27.7594 586.312Z" fill="#D5DAEE"/>
					</g>
					<g id="Group_19">
						<path id="Vector_17" d="M34.8203 590.137V583.327H35.3935L35.4983 584.637C35.8625 583.603 36.5525 583.132 37.3994 583.132C37.6725 583.132 37.9457 583.184 38.1026 583.237V583.931C37.8678 583.864 37.6336 583.812 37.3605 583.812C36.3704 583.812 35.5235 584.782 35.5235 586.417V590.137H34.8203Z" fill="#D5DAEE"/>
					</g>
					<g id="Group_20">
						<path id="Vector_18" d="M38.9902 585.095C39.0938 583.931 40.1234 583.132 41.6214 583.132C43.1325 583.132 44.1346 583.982 44.1346 585.371V590.137H43.5614L43.4578 589.011C43.0403 589.717 42.2725 590.332 41.0614 590.332C39.7455 590.332 38.7949 589.613 38.7949 588.409C38.7949 587.243 39.4981 586.536 41.3992 586.222L43.4314 585.881V585.292C43.4314 584.31 42.7414 583.708 41.5824 583.708C40.5013 583.708 39.8102 584.269 39.7191 585.095H38.9902ZM43.4314 587.714V586.444L41.6082 586.758C39.9923 587.033 39.5239 587.544 39.5239 588.357C39.5239 589.272 40.2271 589.731 41.2435 589.731C42.3246 589.731 43.4314 588.906 43.4314 587.714Z" fill="#D5DAEE"/>
					</g>
					<g id="Group_21">
						<path id="Vector_19" d="M45.9355 590.137V580.709H46.6387V586.103L49.8821 583.327H50.8332L47.3545 586.301L51.2621 590.137H50.3121L46.6387 586.536V590.137H45.9355Z" fill="#D5DAEE"/>
					</g>
					<path id="Vector_20" d="M52.1465 580.709H52.9934V581.677H52.1465V580.709ZM52.2106 583.327H52.9138V590.137H52.2106V583.327Z" fill="#D5DAEE"/>
				</g>
			</g>
			<g id="Group 6">
				<path id="Vector_21" fill-rule="evenodd" clip-rule="evenodd" d="M50.8449 631.348L65.842 615.597C66.1636 615.259 66.6869 615.259 67.0116 615.597L71.9014 620.734C72.2229 621.071 72.2229 621.621 71.9014 621.962L57.4875 637.1C57.166 637.438 56.6426 637.438 56.3179 637.1L50.8418 631.351L50.8449 631.348Z" fill="#D5DAEE"/>
				<path id="Vector_22" fill-rule="evenodd" clip-rule="evenodd" d="M41.9072 621.959C41.5856 621.621 41.5856 621.071 41.9072 620.73L46.7969 615.597C47.1185 615.259 47.6418 615.259 47.9665 615.597L55.5486 623.562L49.4893 629.924L41.9072 621.959Z" fill="#D5DAEE"/>
			</g>
			<ellipse id="Ellipse 8" opacity="0.5" cx="-2.43706" cy="83.5629" rx="45.5629" ry="45.5629" fill="#EEF1F9"/>
			<ellipse id="Ellipse 217" opacity="0.5" cx="197" cy="174" rx="34" ry="34" fill="#EEF1F9"/>
			<ellipse id="Ellipse 218" opacity="0.5" cx="190.248" cy="608.248" rx="53.2483" ry="53.2483" fill="#EEF1F9"/>
			<ellipse id="Ellipse 219" opacity="0.5" cx="293.409" cy="457.409" rx="21.4091" ry="21.4091" fill="#EEF1F9"/>
			<ellipse id="Ellipse 216" opacity="0.5" cx="38.6434" cy="480.643" rx="29.6434" ry="29.6434" fill="#EEF1F9"/>
			<path id="Ellipse 11" d="M141.495 122.5C141.495 157.288 113.071 185.495 78 185.495C42.9287 185.495 14.5045 157.288 14.5045 122.5C14.5045 87.7123 42.9287 59.5045 78 59.5045C113.071 59.5045 141.495 87.7123 141.495 122.5Z" stroke="#B6BEDC" stroke-width="1.00902"/>
			<g id="Layer">
				<path id="Layer_2" fill-rule="evenodd" clip-rule="evenodd" d="M45.7173 368.019C43.1126 365.614 39.696 364.156 35.952 364.156C32.2107 364.156 28.7918 365.614 26.1871 368.019H19.7617L19.9127 367.793L24.1602 359.582L30.7721 346.806L33.9592 352.944L30.3472 359.927C32.1234 359.373 33.9994 359.076 35.952 359.076C37.9069 359.076 39.8064 359.377 41.5913 359.939L39.7085 356.288L39.7131 356.275L39.2924 355.461L37.4353 351.886L35.9732 349.053L35.9691 349.062L32.782 342.924L34.0465 340.478L35.9732 336.754L51.9958 367.796L52.1427 368.019H45.7173Z" fill="#D5DAEE"/>
			</g>
			<path id="Vector_23" fill-rule="evenodd" clip-rule="evenodd" d="M55.3402 206.424L54.6153 215.801C54.2725 215.76 53.9297 215.74 53.5771 215.74C53.1363 215.74 52.7053 215.771 52.2841 215.843L51.8727 211.298C51.8629 211.154 51.9707 211.03 52.1078 211.03H52.8424L52.4898 206.434C52.48 206.29 52.5878 206.167 52.7151 206.167H55.1149C55.252 206.167 55.3598 206.29 55.3402 206.434V206.424ZM49.2869 206.887C49.2477 206.753 49.1105 206.671 48.9832 206.722L46.7304 207.586C46.603 207.637 46.5443 207.792 46.603 207.915L48.4347 212.11L47.7392 212.377C47.6119 212.429 47.5531 212.583 47.6119 212.707L49.4828 216.83C50.1586 216.439 50.8932 216.141 51.667 215.956L49.2966 206.887H49.2869ZM43.7625 209.498L48.944 217.169C48.2878 217.621 47.6903 218.156 47.1809 218.773L44.0759 215.565C43.978 215.462 43.9878 215.298 44.0857 215.205L44.6538 214.712L41.5684 211.432C41.4704 211.329 41.4802 211.164 41.588 211.072L43.4196 209.457C43.5274 209.365 43.6743 209.385 43.7527 209.498H43.7625ZM39.4135 213.94C39.3057 213.858 39.149 213.899 39.0805 214.023L37.8855 216.202C37.8169 216.326 37.8659 216.48 37.9834 216.542L41.9602 218.516L41.588 219.184C41.5194 219.308 41.5684 219.472 41.6957 219.524L45.6529 221.426C45.937 220.655 46.319 219.935 46.7891 219.287L39.4135 213.94ZM36.4848 219.863C36.5044 219.719 36.6415 219.637 36.7688 219.668L45.4374 222.043C45.2121 222.814 45.0848 223.626 45.0652 224.469L40.726 224.099C40.5889 224.089 40.4909 223.955 40.5203 223.811L40.6477 223.05L36.2693 222.619C36.1322 222.608 36.044 222.475 36.0636 222.331L36.475 219.853L36.4848 219.863ZM36.1615 226.012C36.0244 226.022 35.9363 226.156 35.9558 226.3L36.377 228.778C36.3966 228.922 36.5337 229.004 36.6611 228.973L40.9121 227.811L41.0395 228.572C41.059 228.716 41.1962 228.798 41.3235 228.767L45.5158 227.554C45.2709 226.793 45.1142 225.981 45.075 225.148L36.1517 226.012H36.1615ZM37.5524 232.531C37.4839 232.407 37.5328 232.253 37.6504 232.191L45.7411 228.161C46.0447 228.922 46.4561 229.631 46.9458 230.269L43.4001 232.921C43.2923 233.004 43.1356 232.973 43.067 232.849L42.6948 232.171L39.0805 234.793C38.9727 234.875 38.816 234.834 38.7474 234.711L37.5426 232.531H37.5524ZM47.3572 230.762L41.059 237.456C40.9611 237.559 40.9709 237.723 41.0786 237.816L42.9201 239.43C43.0278 239.523 43.1748 239.502 43.2531 239.389L45.7998 235.626L46.3679 236.129C46.4757 236.222 46.6324 236.201 46.7108 236.078L49.1791 232.315C48.513 231.883 47.896 231.358 47.367 230.762H47.3572ZM46.1133 241.507C45.9859 241.456 45.9272 241.301 45.9859 241.178L49.7178 232.623C50.4035 232.993 51.1479 233.271 51.9217 233.425L50.8247 237.847C50.7953 237.98 50.6484 238.063 50.521 238.011L49.8256 237.744L48.66 242.196C48.6208 242.33 48.4837 242.412 48.3563 242.361L46.1035 241.497L46.1133 241.507ZM52.5388 233.538L51.814 242.916C51.8042 243.06 51.9119 243.183 52.0393 243.183H54.439C54.5762 243.183 54.6839 243.06 54.6643 242.916L54.3117 238.32H55.0463C55.1835 238.32 55.2912 238.196 55.2814 238.052L54.87 233.507C54.4488 233.579 54.0178 233.61 53.5771 233.61C53.2245 233.61 52.8816 233.59 52.5388 233.538ZM61.178 208.151C61.2368 208.018 61.178 207.874 61.0507 207.822L58.7978 206.959C58.6705 206.907 58.5333 206.99 58.4942 207.123L57.3286 211.575L56.6331 211.308C56.5058 211.257 56.3686 211.339 56.3295 211.473L55.2324 215.894C56.016 216.059 56.7507 216.336 57.4363 216.696L61.178 208.151ZM66.0951 211.884L59.7969 218.578C59.268 217.981 58.6607 217.457 57.9848 217.025L60.4532 213.262C60.5315 213.149 60.6883 213.118 60.796 213.21L61.3641 213.714L63.9108 209.951C63.9892 209.838 64.1459 209.817 64.2438 209.91L66.0853 211.524C66.193 211.617 66.193 211.781 66.1049 211.884H66.0951ZM69.5038 217.148C69.6311 217.087 69.6703 216.933 69.6017 216.809L68.3969 214.629C68.3284 214.506 68.1716 214.475 68.0639 214.547L64.4495 217.169L64.0773 216.501C64.0088 216.377 63.852 216.336 63.7443 216.429L60.1985 219.081C60.6882 219.719 61.0898 220.428 61.4033 221.189L69.494 217.159L69.5038 217.148ZM70.7771 220.562L71.1885 223.04C71.2081 223.184 71.1199 223.307 70.9828 223.328L62.0596 224.202C62.0204 223.359 61.8637 222.557 61.6188 221.796L65.811 220.583C65.9384 220.542 66.0755 220.634 66.0951 220.778L66.2224 221.539L70.4735 220.377C70.6008 220.346 70.7379 220.428 70.7575 220.572L70.7771 220.562ZM70.3755 229.662C70.5029 229.693 70.64 229.611 70.6596 229.467L71.071 226.989C71.0906 226.845 71.0024 226.721 70.8653 226.701L66.4869 226.269L66.6142 225.508C66.6338 225.364 66.5457 225.241 66.4085 225.22L62.0693 224.85C62.0498 225.693 61.9224 226.505 61.6971 227.276L70.3657 229.652L70.3755 229.662ZM68.0639 235.317C67.9953 235.441 67.8386 235.471 67.7309 235.399L60.3552 230.053C60.8254 229.405 61.2074 228.685 61.4914 227.914L65.4486 229.816C65.576 229.878 65.6249 230.032 65.5564 230.155L65.1842 230.824L69.1609 232.798C69.2785 232.86 69.3274 233.014 69.2589 233.137L68.0639 235.317ZM58.2003 232.161L63.3819 239.831C63.4602 239.944 63.617 239.965 63.7149 239.872L65.5466 238.258C65.6543 238.165 65.6543 238.001 65.5662 237.898L62.4807 234.618L63.0488 234.124C63.1566 234.032 63.1566 233.867 63.0586 233.765L59.9536 230.556C59.4345 231.173 58.8468 231.718 58.1905 232.161H58.2003ZM58.1513 242.607C58.024 242.659 57.8869 242.576 57.8477 242.443L55.4773 233.374C56.2511 233.189 56.9857 232.891 57.6616 232.5L59.5324 236.623C59.5912 236.757 59.5324 236.911 59.4051 236.952L58.7097 237.219L60.5413 241.415C60.6001 241.548 60.5413 241.692 60.414 241.744L58.1611 242.607H58.1513Z" fill="#D5DAEE"/>
			<g id="Layer_4">
				<path id="Vector_24" d="M37.3721 285.965C37.1019 285.985 36.8573 286.141 36.6896 286.365C36.3909 286.765 35.9814 287.461 36.536 287.67C36.536 287.67 36.7891 287.635 37.1617 286.873C37.1617 286.873 37.3465 286.679 37.7873 286.765C38.2253 286.855 38.5126 286.959 38.3618 286.481C38.2481 286.123 37.8215 285.932 37.3721 285.965Z" fill="#D5DAEE"/>
				<path id="Vector_25" d="M36.1883 267.785C36.0575 267.241 35.8982 266.745 35.7446 266.345C35.4062 265.47 34.28 264.239 33.313 264.311C32.3432 264.382 32.0076 267.196 32.0076 267.196C32.0076 267.196 31.9593 267.468 31.8768 267.904C29.6357 268.242 27.5226 268.995 25.6142 270.094C25.4493 267.331 25.145 263.668 24.0756 263.776C22.6792 263.919 21.553 264.487 20.8306 267.229C20.1111 269.975 19.9291 271.442 20.3358 273.097C20.4097 273.402 20.5377 273.769 20.6998 274.184C17.7505 277.641 15.9531 282.206 15.9531 287.213C15.9531 297.989 24.269 306.721 34.5246 306.721C44.7801 306.721 53.096 297.986 53.096 287.213C53.096 277.028 45.6646 268.669 36.1883 267.785ZM21.6383 270.103C22.0934 267.298 22.3635 267.14 22.6849 267.086C22.6878 267.086 22.6906 267.086 22.6934 267.086C22.9238 267.05 23.1229 267.253 23.1257 267.495C23.1343 268.275 23.14 269.055 23.1485 269.834C23.1656 271.773 23.1741 273.709 23.2025 275.645C23.2025 275.774 23.2054 275.902 23.2082 276.031C23.2082 275.953 23.0546 275.78 23.0177 275.714C22.8698 275.457 22.7503 275.185 22.6081 274.925C22.4346 274.608 22.2811 274.277 22.1531 273.936C21.7094 272.759 21.4307 271.37 21.6355 270.103H21.6383ZM23.9477 296.57C23.8254 297.275 23.3931 297.818 23.1542 298.789C23.14 298.852 22.921 299.811 23.0006 300.522C23.012 300.612 23.029 300.701 23.0489 300.788C19.4825 297.457 17.2301 292.608 17.2301 287.216C17.2301 282.788 18.7488 278.725 21.2657 275.57C21.9682 277.246 22.8072 279.263 22.9494 280.963C23.1741 283.661 22.8584 284.464 23.6689 285.555C23.6689 285.555 22.8129 287.258 23.3533 289.056C23.3533 289.056 22.6764 290.571 22.8129 291.894C22.9494 293.221 21.5615 293.603 21.5615 293.603C21.5615 293.603 22.0166 294.756 23.4357 294.278C23.4357 294.278 24.124 295.533 23.942 296.573L23.9477 296.57ZM33.3329 280.888C33.4504 281.02 33.5422 281.142 33.613 281.253C33.92 281.736 33.4176 281.784 32.9538 281.45C32.5806 281.181 32.0785 281.007 31.4843 281.262C30.7626 281.571 30.5714 282.172 30.5469 282.656C30.5251 283.086 30.3325 283.288 30.2315 282.87C30.1878 282.689 30.1675 282.531 30.1675 282.531C30.0253 280.942 31.2653 280.572 31.2653 280.572C31.2653 280.572 32.5167 279.968 33.3358 280.891L33.3329 280.888ZM32.8693 282.37C32.8693 282.669 32.639 282.911 32.3546 282.911C32.0702 282.911 31.8398 282.669 31.8398 282.37C31.8398 282.071 32.0702 281.829 32.3546 281.829C32.639 281.829 32.8693 282.071 32.8693 282.37ZM27.2297 276.368C27.2297 276.368 25.9242 274.57 25.7422 272.251C25.728 272.06 25.7138 271.839 25.6996 271.6C27.4885 270.48 29.4821 269.694 31.6094 269.312C31.2511 271.155 30.7392 273.623 30.4519 274.226C29.9798 275.221 29.6186 275.645 29.6186 275.645C29.6186 275.645 29.2347 274.626 28.5379 274.438C28.5379 274.438 28.1085 276.52 27.2325 276.368H27.2297ZM39.968 300.226C39.6836 301.404 38.8276 302.318 37.7952 302.814C36.9619 303.214 35.8925 303.48 34.9711 303.435C34.2572 303.402 33.5576 303.127 32.9575 302.73C32.6589 302.533 32.383 302.303 32.1384 302.037C31.945 301.828 31.6805 301.451 31.3904 301.401C31.1203 301.353 29.9485 301.708 29.0925 300.713C28.2364 299.719 28.2364 299.103 28.2364 299.103C28.2364 299.103 28.0345 297.305 28.5976 297.329C28.5976 297.329 28.8223 297.281 28.8678 297.66C28.9133 298.043 28.8422 298.428 28.9133 298.807C29.01 299.333 29.3968 299.716 29.8632 299.892C30.378 300.089 30.8984 299.993 31.4132 299.838C31.9536 299.674 31.8626 299.602 32.1128 299.695C32.3603 299.79 33.4865 302.581 36.0319 302.085C36.9533 301.905 37.9317 301.547 38.6541 300.881C38.9783 300.579 39.2541 300.182 39.402 299.742C39.4845 299.494 39.5329 298.598 39.9083 298.631C40.2865 298.664 40.022 300.023 39.9737 300.226H39.968ZM37.6331 289.235C37.6558 289.307 37.6871 289.379 37.744 289.427C38.0597 289.686 38.1052 288.85 38.108 288.719C38.108 288.719 38.1251 288.575 38.3099 288.701C38.4806 288.814 38.5574 289.029 38.6512 289.202C38.7735 289.427 38.9356 289.621 39.1233 289.785C39.5841 290.188 40.6534 290.463 40.5567 291.273C40.4885 291.84 39.7291 291.646 39.001 291.079C39.0835 291.144 39.0807 291.557 39.0664 291.655C39.0181 291.969 38.7906 291.903 38.5403 291.906C37.7781 291.915 36.9932 291.787 36.3817 291.273C35.7532 290.744 35.1133 290.212 34.7691 289.424C34.3312 288.417 34.3454 287.099 34.6156 286.051C34.8146 285.28 35.1957 284.65 35.6508 284.019C36.0973 283.404 36.5694 282.773 36.7514 282.009C36.9021 281.369 37.4283 280.464 38.4066 280.536C38.4066 280.536 39.2854 280.572 40.0277 281.014C40.7103 281.42 41.353 281.895 41.956 282.424C42.3883 282.806 43.304 283.466 43.1391 284.172C43.0282 284.644 42.5816 284.754 42.1778 284.712C41.6716 284.656 39.2229 284.052 39.8713 285.417C40.0078 285.701 40.278 285.913 40.551 286.036C41.1284 286.29 41.9361 286.72 42.2091 287.35C42.2916 287.541 42.4793 288.354 42.8006 288.202C42.8945 288.157 42.9542 288.058 42.9969 287.96C43.1419 287.631 43.196 287.261 43.2415 286.905C43.3268 286.248 43.5287 286.23 43.6965 286.194C43.9496 286.14 44.1459 286.508 44.2027 286.711C44.2795 286.992 44.2653 287.308 44.2198 287.595C43.8927 289.633 41.464 290.308 39.8997 289.388C39.3508 289.065 38.8901 288.584 38.4578 288.109C38.4578 288.109 38.0682 287.559 37.8492 287.861C37.5449 288.279 37.4653 288.739 37.6274 289.232L37.6331 289.235ZM42.7551 303.187C42.795 303.151 42.8348 303.112 42.8717 303.08C42.8717 303.08 43.1078 300.908 42.8717 300.322C42.6357 299.736 42.8888 298.44 42.8888 298.44C42.8888 298.44 43.3268 296.399 43.0083 295.3C42.6869 294.201 42.3826 294.219 42.4679 293.755C42.5532 293.295 42.6869 292.602 42.3996 291.805C42.3996 291.805 43.0936 291.076 43.1106 290.296C43.1106 290.296 45.2607 288.871 45.036 287.308C44.8114 285.746 44.1572 285.062 44.1572 285.062C44.1572 285.062 44.2482 283.667 43.8643 283.192C43.4804 282.72 40.8013 280.542 40.8013 280.542C40.8013 280.542 40.7785 279.406 40.2211 278.925C39.6637 278.444 39.0551 278.214 39.0551 278.214C39.0551 278.214 39.0039 277.255 38.2787 276.724C37.5534 276.192 36.6746 276.476 36.6746 276.476C36.6746 276.476 36.3874 275.89 35.9323 275.57C35.4773 275.251 34.9682 275.197 34.9682 275.197C34.9682 275.197 36.0433 275.033 36.2253 274.154C36.4044 273.279 36.541 271.149 36.4955 269.846C36.4869 269.616 36.467 269.386 36.4414 269.159C45.0815 270.16 51.8247 277.874 51.8247 287.21C51.8247 294.099 48.1559 300.104 42.7608 303.184L42.7551 303.187Z" fill="#D5DAEE"/>
			</g>
			<g id="Group 26">
				<path id="Vector_26" d="M90.5859 325.464C91.3018 325.933 92.4918 326.454 93.75 326.454C94.8958 326.454 95.9603 326.105 96.8422 325.51C96.8422 325.51 96.844 325.51 96.8459 325.508L100.176 323.322V331.216C99.6484 331.216 99.117 331.065 98.6558 330.762L90.5859 325.464Z" fill="#B9C1E0"/>
				<path id="Vector_27" d="M98.0607 301.19L84.2235 317.585C83.1553 318.853 83.4339 320.768 84.8194 321.677C84.8194 321.677 89.941 325.039 90.5868 325.464C91.3026 325.933 92.4926 326.454 93.7509 326.454C94.8966 326.454 95.9611 326.105 96.843 325.51C96.843 325.51 96.8449 325.51 96.8467 325.508L100.177 323.322L92.1255 318.035L100.179 308.492V300.207C99.3964 300.207 98.6142 300.535 98.0607 301.19Z" fill="#D5DAEE"/>
				<path id="Vector_28" d="M115.533 321.677C116.919 320.768 117.197 318.853 116.129 317.586L107.05 306.828C106.318 306.469 105.497 306.264 104.628 306.264C102.921 306.264 101.395 307.037 100.381 308.252L100.18 308.49L108.231 318.033L100.178 323.32V331.214C100.707 331.214 101.235 331.063 101.696 330.761L115.533 321.675V321.677Z" fill="#A1ABD3"/>
				<path id="Vector_29" d="M100.18 300.207V308.492L100.381 308.254C101.395 307.039 102.921 306.265 104.628 306.265C105.499 306.265 106.318 306.473 107.05 306.829L102.292 301.192C101.74 300.536 100.958 300.209 100.178 300.209L100.18 300.207Z" fill="#B6BEDC"/>
				<path id="Vector_30" d="M108.229 318.035L100.178 308.494V323.32L108.229 318.035Z" fill="#EEF1F9"/>
			</g>
			<g id="Group 1000002976">
				<path id="Vector_31" d="M187.334 337.424V350.03H185.25V340.138H185.222L181.5 350.03H180.111L176.306 340.138H176.278V350.03H174.361V337.424H177.361L180.806 346.761H180.861L184.5 337.424H187.334ZM189.056 338.387C189.056 338.037 189.167 337.745 189.417 337.512C189.667 337.278 189.945 337.161 190.278 337.161C190.639 337.161 190.945 337.278 191.167 337.512C191.389 337.745 191.528 338.037 191.528 338.387C191.528 338.737 191.417 339.029 191.167 339.262C190.917 339.496 190.639 339.612 190.278 339.612C189.917 339.612 189.639 339.496 189.417 339.262C189.195 339 189.056 338.708 189.056 338.387ZM191.306 340.984V350.03H189.278V340.984H191.306ZM197.445 348.483C197.75 348.483 198.084 348.425 198.445 348.25C198.806 348.104 199.139 347.899 199.445 347.666V349.65C199.111 349.854 198.75 350 198.334 350.088C197.917 350.175 197.473 350.234 196.973 350.234C195.695 350.234 194.667 349.825 193.889 348.979C193.084 348.133 192.695 347.053 192.695 345.769C192.695 344.31 193.111 343.114 193.917 342.18C194.723 341.246 195.861 340.78 197.361 340.78C197.75 340.78 198.139 340.838 198.5 340.926C198.889 341.013 199.195 341.159 199.417 341.276V343.318C199.111 343.085 198.778 342.881 198.473 342.764C198.139 342.647 197.806 342.56 197.473 342.56C196.667 342.56 196.028 342.822 195.528 343.377C195.028 343.931 194.806 344.66 194.806 345.594C194.806 346.499 195.056 347.228 195.528 347.724C196 348.22 196.639 348.483 197.445 348.483ZM205.195 340.838C205.361 340.838 205.5 340.838 205.639 340.867C205.778 340.896 205.889 340.926 205.973 340.955V343.114C205.861 343.026 205.723 342.939 205.5 342.881C205.278 342.822 205.056 342.764 204.75 342.764C204.25 342.764 203.834 342.997 203.5 343.435C203.167 343.873 202.973 344.544 202.973 345.478V350.03H200.945V340.984H202.973V342.414H203C203.195 341.918 203.473 341.538 203.834 341.246C204.223 340.984 204.667 340.838 205.195 340.838ZM206.084 345.653C206.084 344.164 206.5 342.968 207.278 342.093C208.084 341.217 209.195 340.78 210.612 340.78C211.945 340.78 213 341.188 213.75 342.034C214.5 342.881 214.889 344.019 214.889 345.448C214.889 346.907 214.473 348.074 213.695 348.95C212.889 349.825 211.806 350.263 210.417 350.263C209.084 350.263 208.028 349.854 207.25 349.037C206.473 348.191 206.084 347.053 206.084 345.653ZM208.195 345.565C208.195 346.499 208.389 347.228 208.806 347.724C209.223 348.22 209.806 348.483 210.556 348.483C211.278 348.483 211.862 348.25 212.25 347.724C212.639 347.228 212.834 346.499 212.834 345.507C212.834 344.544 212.639 343.814 212.25 343.289C211.862 342.793 211.278 342.53 210.584 342.53C209.834 342.53 209.278 342.793 208.861 343.318C208.389 343.873 208.195 344.602 208.195 345.565ZM217.917 343.377C217.917 343.668 218 343.931 218.195 344.106C218.389 344.281 218.778 344.485 219.417 344.748C220.223 345.098 220.806 345.478 221.112 345.886C221.445 346.324 221.612 346.82 221.612 347.433C221.612 348.279 221.306 348.95 220.667 349.475C220.056 350 219.195 350.234 218.139 350.234C217.778 350.234 217.389 350.175 216.945 350.088C216.5 350 216.139 349.884 215.834 349.738V347.637C216.195 347.899 216.612 348.133 217.028 348.279C217.445 348.425 217.834 348.512 218.195 348.512C218.639 348.512 219 348.454 219.195 348.308C219.417 348.162 219.528 347.958 219.528 347.637C219.528 347.345 219.417 347.112 219.195 346.878C218.973 346.674 218.528 346.44 217.917 346.178C217.167 345.857 216.639 345.478 216.334 345.069C216.028 344.66 215.862 344.135 215.862 343.493C215.862 342.676 216.167 342.005 216.778 341.48C217.389 340.955 218.195 340.692 219.167 340.692C219.473 340.692 219.806 340.721 220.167 340.809C220.528 340.896 220.862 340.984 221.112 341.071V343.143C220.834 342.968 220.528 342.793 220.167 342.647C219.806 342.501 219.445 342.443 219.112 342.443C218.723 342.443 218.417 342.53 218.223 342.676C218.028 342.881 217.917 343.085 217.917 343.377ZM222.473 345.653C222.473 344.164 222.889 342.968 223.667 342.093C224.473 341.217 225.584 340.78 227 340.78C228.334 340.78 229.389 341.188 230.139 342.034C230.889 342.881 231.278 344.019 231.278 345.448C231.278 346.907 230.862 348.074 230.084 348.95C229.278 349.825 228.195 350.263 226.806 350.263C225.473 350.263 224.417 349.854 223.639 349.037C222.889 348.191 222.473 347.053 222.473 345.653ZM224.584 345.565C224.584 346.499 224.778 347.228 225.195 347.724C225.612 348.22 226.195 348.483 226.945 348.483C227.667 348.483 228.25 348.25 228.639 347.724C229.028 347.228 229.223 346.499 229.223 345.507C229.223 344.544 229.028 343.814 228.639 343.289C228.25 342.793 227.667 342.53 226.973 342.53C226.223 342.53 225.667 342.793 225.25 343.318C224.806 343.873 224.584 344.602 224.584 345.565ZM238.028 342.735H235.001V350.03H232.945V342.735H231.5V340.984H232.945V339.729C232.945 338.795 233.251 338.008 233.834 337.395C234.417 336.782 235.167 336.49 236.084 336.49C236.334 336.49 236.556 336.519 236.751 336.519C236.945 336.519 237.112 336.578 237.251 336.636V338.474C237.195 338.445 237.056 338.387 236.889 338.329C236.723 338.27 236.528 338.241 236.306 338.241C235.889 338.241 235.556 338.387 235.334 338.65C235.112 338.912 235.001 339.35 235.001 339.875V340.955H238.028V338.912L240.056 338.27V340.955H242.112V342.705H240.056V346.936C240.056 347.491 240.167 347.87 240.334 348.104C240.528 348.337 240.834 348.454 241.251 348.454C241.362 348.454 241.501 348.425 241.667 348.366C241.834 348.308 241.973 348.25 242.084 348.162V349.913C241.945 350 241.751 350.059 241.445 350.117C241.139 350.175 240.862 350.205 240.556 350.205C239.695 350.205 239.056 349.971 238.639 349.504C238.223 349.037 238.001 348.308 238.001 347.345L238.028 342.735Z" fill="#C5CDEB"/>
				<path id="Vector_32" d="M157.834 333.223H148.334V343.202H157.834V333.223Z" fill="#A1ABD2"/>
				<path id="Vector_33" d="M168.334 333.223H158.834V343.202H168.334V333.223Z" fill="#D9E0F9"/>
				<path id="Vector_34" d="M157.834 344.252H148.334V354.231H157.834V344.252Z" fill="#B9C1E0"/>
				<path id="Vector_35" d="M168.334 344.252H158.834V354.231H168.334V344.252Z" fill="#E5EBFA"/>
			</g>
			<g id="Mask group">
				<mask id="mask0_5160_42264" style="mask-type:alpha" maskUnits="userSpaceOnUse" x="166" y="239" width="36" height="33">
					<path id="Polygon 1" d="M167.577 258.141C166.6 256.43 166.6 254.329 167.577 252.618L173.486 242.27C174.477 240.533 176.323 239.462 178.322 239.462H190.034C192.033 239.462 193.879 240.533 194.871 242.27L200.779 252.618C201.757 254.329 201.757 256.43 200.779 258.141L194.871 268.489C193.879 270.226 192.033 271.297 190.034 271.297H178.322C176.323 271.297 174.477 270.226 173.486 268.489L167.577 258.141Z" fill="white"/>
				</mask>
				<g mask="url(#mask0_5160_42264)">
					<g id="Group 6_2">
						<g id="Vector_36">
							<path d="M178.32 265.277L177.916 245.483L193.873 255.582L178.32 265.277Z" fill="#DDE4FD"/>
							<path d="M193.873 255.582L177.916 245.483L193.065 239.424L193.873 255.582Z" fill="white"/>
							<path d="M202.558 255.582L193.065 239.424L193.873 255.582H202.558Z" fill="#D9E0F9"/>
							<path d="M174.483 239.424L177.916 245.483L193.065 239.424H174.483Z" fill="#D9E0F9"/>
							<path d="M177.916 245.483L174.483 239.424L165.596 255.38L177.916 245.483Z" fill="#B9C1E0"/>
							<path d="M202.558 255.582H193.873L193.065 271.539L202.558 255.582Z" fill="#B9C1E0"/>
							<path d="M178.32 265.277L177.916 245.483L165.596 255.38L178.32 265.277Z" fill="#C5CDEB"/>
							<path d="M193.065 271.539L178.32 265.277L193.873 255.582L193.065 271.539Z" fill="#C5CDEB"/>
							<path d="M174.685 271.337L178.32 265.277L193.065 271.539L174.685 271.337Z" fill="#A1ABD3"/>
							<path d="M174.685 271.337L178.32 265.277L165.596 255.38L174.685 271.337Z" fill="#A1ABD2"/>
						</g>
					</g>
				</g>
			</g>
			<g id="Group 25">
				<path id="Subtract" fill-rule="evenodd" clip-rule="evenodd" d="M238.391 271.31C238.391 280.572 227.991 287.847 225.473 289.609L225.374 289.678C225.18 289.882 224.791 289.882 224.403 289.678C222.071 288.249 211.191 280.698 211.191 271.31V260.086C211.191 259.677 211.58 259.269 211.969 259.269C216.418 259.161 218.002 258.01 219.449 256.958C220.72 256.035 221.885 255.188 224.791 255.188C227.696 255.188 228.819 256.034 230.044 256.957C231.441 258.009 232.969 259.16 237.42 259.269C237.808 259.269 238.197 259.677 238.197 260.086L238.391 271.31ZM224.791 277.025C226.83 277.025 228.482 275.289 228.482 273.147C228.482 271.006 226.83 269.27 224.791 269.27C222.752 269.27 221.1 271.006 221.1 273.147C221.1 275.289 222.752 277.025 224.791 277.025ZM230.231 272.535C229.842 269.678 227.511 267.433 224.791 267.433C222.071 267.433 219.74 269.474 219.157 272.331C218.963 272.739 218.574 273.147 218.186 273.147H215.466H215.271C214.883 273.147 214.494 272.739 214.494 272.127C215.077 267.025 218.768 263.147 223.625 262.535C229.26 261.923 234.311 266.208 234.894 272.127V272.331C234.894 272.943 234.505 273.351 233.922 273.351H231.202C230.814 273.351 230.231 272.943 230.231 272.535Z" fill="#D5DAEE"/>
			</g>
			<g id="g6">
				<path id="path10" d="M164.899 396.084C164.795 396.082 164.761 396.1 164.747 396.14V408.698L176.541 408.654C176.658 408.505 176.69 407.379 176.676 403.517L176.662 399.575L176.36 399.565C172.832 399.442 170.909 398.916 168.773 397.489C168.061 397.013 167.917 396.933 167.391 396.705C166.786 396.447 166.13 396.259 165.474 396.155C165.178 396.11 165.003 396.087 164.899 396.084ZM162.955 396.095C162.867 396.095 162.574 396.13 162.304 396.179C161.089 396.397 160.233 396.754 159.186 397.468C158.087 398.217 157.361 398.579 156.23 398.931C155.136 399.273 153.298 399.526 151.669 399.565L151.204 399.575L151.194 403.542C151.185 406.388 151.199 407.677 151.24 408.103L151.297 408.698H163.118V396.105L162.955 396.095ZM176.22 410.359C176.22 410.478 164.757 410.394 164.757 410.394L164.789 424.34C164.85 424.34 165.031 424.237 165.585 423.895C165.687 423.83 166.228 423.458 166.786 423.066C168.694 421.723 170.062 420.538 171.449 419.031C173.055 417.281 174.126 415.748 175.048 413.879C175.643 412.664 176.22 410.999 176.22 410.478V410.359ZM163.118 410.384L151.669 410.409C151.632 410.478 151.716 410.934 151.855 411.415C152.339 413.056 153.279 414.96 154.359 416.482C155.592 418.213 157.273 419.992 159.232 421.648C160.47 422.689 162.774 424.291 163.039 424.291L163.118 410.384Z" fill="#D5DAEE"/>
			</g>
			<g id="Group_22">
				<path id="Vector_37" d="M148.334 473.35C148.334 473.517 149.512 476.022 149.653 476.15C149.681 476.18 149.802 476.376 149.924 476.592C150.046 476.808 150.251 477.093 150.364 477.231C150.485 477.368 150.579 477.506 150.579 477.535C150.579 477.565 150.663 477.702 150.775 477.83C150.878 477.958 151.187 478.331 151.449 478.655C152.655 480.129 154.395 481.839 156.237 483.352C156.294 483.391 156.434 483.509 156.555 483.617C156.677 483.725 156.808 483.814 156.836 483.814C156.864 483.814 157.004 483.912 157.126 484.03C157.463 484.344 157.799 484.59 159.567 485.828C161.204 486.968 161.232 486.997 161.896 487.41C162.13 487.557 162.373 487.744 162.439 487.812C162.504 487.881 162.607 487.94 162.654 487.94C162.719 487.94 163.664 488.5 164.141 488.824C164.216 488.883 164.384 488.982 164.515 489.041C164.852 489.217 166.722 490.406 167.274 490.799C168.864 491.919 170.875 493.835 171.483 494.788C171.736 495.191 171.904 495.319 171.904 495.103C171.904 494.975 171.521 494.238 171.371 494.051C171.305 493.983 171.249 493.875 171.249 493.825C171.249 493.717 170.688 492.755 170.52 492.568C170.454 492.489 170.323 492.312 170.239 492.175C169.987 491.772 169.678 491.408 168.724 490.396C167.573 489.198 167.443 489.09 165.824 487.822C165.076 487.243 164.431 486.732 164.375 486.683C164.328 486.643 164.113 486.496 163.907 486.368C163.701 486.24 163.514 486.103 163.486 486.073C163.458 486.044 163.271 485.906 163.065 485.779C162.859 485.651 162.27 485.258 161.756 484.904C160.718 484.187 160.54 484.069 160.241 483.902C160.119 483.833 160.025 483.745 160.025 483.696C160.025 483.656 159.979 483.617 159.932 483.617C159.876 483.617 159.651 483.48 159.436 483.313C159.071 483.037 157.949 482.202 157.566 481.927C157.463 481.858 157.304 481.721 157.201 481.623C157.089 481.534 156.976 481.456 156.948 481.456C156.92 481.456 156.789 481.357 156.658 481.23C156.527 481.112 156.163 480.797 155.845 480.542C155.527 480.286 155.209 480.021 155.143 479.952C155.078 479.884 154.788 479.638 154.507 479.402C153.301 478.41 149.185 474.264 148.774 473.625C148.596 473.35 148.334 473.183 148.334 473.35Z" fill="#D5DAEE"/>
				<path id="Vector_38" d="M157.108 475.128C157.033 475.206 157.136 475.56 157.23 475.56C157.277 475.56 157.314 475.609 157.314 475.678C157.314 475.825 157.987 477.24 158.137 477.407C158.193 477.476 158.249 477.574 158.249 477.623C158.249 477.751 159.054 478.969 159.446 479.431C160.382 480.532 162.084 482.192 162.739 482.644C162.87 482.732 163.104 482.929 163.253 483.066C163.412 483.214 163.702 483.45 163.908 483.597C164.114 483.744 164.366 483.941 164.46 484.029C164.563 484.128 164.815 484.324 165.021 484.471C165.236 484.629 165.489 484.825 165.582 484.914C165.685 485.012 165.938 485.208 166.143 485.356C166.358 485.503 166.546 485.65 166.574 485.68C166.602 485.709 166.92 485.975 167.275 486.269C167.64 486.564 167.977 486.849 168.033 486.908C168.089 486.957 168.463 487.311 168.865 487.694C170.231 488.981 171.278 490.18 171.914 491.182C172.532 492.165 172.775 492.597 173.327 493.717C173.617 494.326 174.047 495.132 174.262 495.515C174.486 495.898 174.767 496.389 174.889 496.615C175.01 496.841 175.169 497.087 175.244 497.156C175.309 497.224 175.366 497.333 175.366 497.382C175.366 497.431 175.412 497.529 175.459 497.598C175.515 497.667 175.955 498.354 176.451 499.14C178.031 501.656 180.201 503.66 182.334 504.554C183.344 504.977 185.458 505.144 188.226 505.016C190.153 504.937 192.36 504.996 192.744 505.144C192.865 505.193 193.137 505.232 193.352 505.232C193.567 505.242 193.913 505.301 194.119 505.379C194.325 505.458 194.577 505.527 194.68 505.527C194.783 505.527 194.989 505.595 195.138 505.674C195.279 505.753 195.466 505.821 195.54 505.821C195.69 505.821 196.204 506.057 197.392 506.666C199.104 507.561 200.488 508.622 201.947 510.164C202.92 511.196 202.957 511.225 203.014 510.97C203.088 510.665 202.995 509.624 202.873 509.388C202.827 509.29 202.686 508.985 202.565 508.72C202.331 508.17 201.891 507.511 201.237 506.716C200.984 506.391 200.806 506.077 200.806 505.939C200.806 505.537 200.441 504.908 200.011 504.574C199.469 504.151 197.804 503.267 197.551 503.267C197.505 503.267 197.336 503.198 197.196 503.12C197.046 503.041 196.85 502.972 196.756 502.972C196.672 502.972 196.523 502.933 196.429 502.884C196.345 502.835 195.952 502.697 195.568 502.579C194.287 502.176 193.464 501.872 193.174 501.685C192.865 501.489 192.575 500.978 192.575 500.634C192.575 500.378 192.931 499.219 193.043 499.101C193.099 499.042 193.137 498.934 193.137 498.855C193.137 498.767 193.193 498.58 193.268 498.433C193.342 498.295 193.445 497.863 193.511 497.48C193.819 495.574 192.837 494.356 189.676 492.695C189.255 492.479 188.488 492.115 188.133 491.958C188.03 491.919 187.749 491.791 187.506 491.683C187.263 491.565 187.001 491.477 186.926 491.477C186.851 491.477 186.758 491.428 186.73 491.379C186.702 491.32 186.608 491.28 186.524 491.28C186.449 491.28 186.253 491.221 186.094 491.143C185.925 491.064 185.121 490.769 184.298 490.494C183.475 490.209 182.736 489.944 182.652 489.905C182.568 489.856 182.334 489.787 182.137 489.748C181.932 489.718 181.735 489.649 181.679 489.61C181.632 489.571 181.436 489.502 181.258 489.472C181.08 489.433 180.847 489.364 180.744 489.315C180.641 489.276 180.37 489.188 180.136 489.119C179.902 489.06 179.546 488.962 179.341 488.912C179.135 488.853 178.882 488.765 178.78 488.726C178.677 488.677 178.443 488.608 178.265 488.569C178.087 488.539 177.882 488.47 177.797 488.431C177.723 488.392 177.339 488.254 176.956 488.136C176.572 488.018 176.189 487.891 176.114 487.851C176.03 487.802 175.824 487.733 175.646 487.694C175.468 487.655 175.281 487.596 175.225 487.557C175.179 487.517 174.814 487.38 174.43 487.252C174.047 487.134 173.691 486.997 173.635 486.957C173.588 486.918 173.27 486.79 172.934 486.662C172.597 486.535 172.288 486.397 172.242 486.348C172.186 486.309 172.092 486.269 172.017 486.269C171.83 486.269 170.951 485.847 168.725 484.707C167.163 483.902 165.722 483.076 165.404 482.811C165.358 482.772 164.974 482.506 164.563 482.222C164.151 481.937 163.777 481.671 163.721 481.632C163.674 481.593 163.235 481.249 162.748 480.866C161.055 479.539 158.595 477.054 157.557 475.609C157.361 475.334 157.192 475.108 157.183 475.088C157.164 475.079 157.136 475.098 157.108 475.128ZM198.936 504.898C199.89 505.232 200.198 505.487 200.423 506.087C200.647 506.666 200.273 506.804 199.815 506.303C199.665 506.136 199.394 505.91 199.216 505.792C199.039 505.674 198.833 505.527 198.767 505.458C198.702 505.389 198.59 505.33 198.515 505.33C198.393 505.33 198.281 505.124 198.281 504.878C198.281 504.701 198.412 504.701 198.936 504.898ZM150.393 481.318C150.393 481.426 151.188 483.076 151.328 483.253C151.384 483.322 151.58 483.587 151.767 483.862C152.45 484.825 153.517 485.975 154.938 487.252C155.294 487.576 156.266 488.343 156.575 488.549C156.706 488.637 156.874 488.775 156.949 488.844C157.024 488.922 157.248 489.089 157.454 489.217C157.66 489.345 157.847 489.482 157.875 489.512C157.931 489.59 160.69 491.31 161.57 491.821C162.262 492.233 163.01 492.626 165.638 493.972C167.182 494.768 167.472 494.925 168.603 495.643C169.454 496.183 170.82 497.303 171.503 498.02C171.886 498.423 172.214 498.747 172.232 498.747C172.26 498.747 172.223 498.639 172.167 498.502C172.111 498.364 172.027 498.256 171.98 498.256C171.942 498.256 171.905 498.197 171.905 498.128C171.905 498.05 171.821 497.883 171.718 497.755C171.615 497.627 171.503 497.47 171.465 497.421C170.783 496.478 170.221 495.908 168.5 494.375C168.267 494.159 166.723 493.059 166.003 492.587C165.433 492.204 164.282 491.526 163.113 490.868C162.832 490.701 162.561 490.534 162.505 490.494C162.421 490.426 162.019 490.2 160.681 489.433C159.839 488.962 157.707 487.576 157.361 487.281C157.314 487.232 157.099 487.085 156.893 486.957C156.687 486.83 156.482 486.682 156.425 486.643C156.379 486.604 155.874 486.211 155.303 485.768C154.742 485.326 154.255 484.933 154.227 484.904C154.199 484.864 153.975 484.668 153.713 484.462C153.189 484.049 152.516 483.401 151.262 482.104C150.785 481.612 150.393 481.259 150.393 481.318ZM161.018 498.914C160.924 499.013 162.496 500.545 163.534 501.361C164.048 501.764 164.516 502.127 164.563 502.167C164.806 502.363 165.648 502.874 165.722 502.874C165.769 502.874 165.872 502.933 165.938 502.992C166.003 503.061 166.209 503.188 166.387 503.287C167.631 503.906 168.164 504.151 168.295 504.151C168.369 504.151 168.454 504.19 168.482 504.23C168.556 504.358 171.503 505.33 171.83 505.33C171.924 505.33 172.073 505.37 172.167 505.428C172.251 505.478 172.513 505.566 172.747 505.615C173.56 505.802 174.009 505.92 174.196 506.008C174.299 506.057 174.702 506.195 175.085 506.323C175.468 506.45 175.824 506.578 175.88 506.627C175.927 506.666 176.02 506.706 176.095 506.706C176.17 506.706 176.357 506.765 176.516 506.843C178.05 507.541 178.461 507.708 178.518 507.659C178.546 507.619 178.452 507.492 178.302 507.374C178.069 507.177 177.657 506.794 176.769 505.92C176.628 505.782 176.376 505.546 176.207 505.389C175.74 504.967 173.776 503.434 173.355 503.169C173.149 503.041 172.962 502.903 172.934 502.874C172.906 502.835 172.822 502.776 172.747 502.736C172.672 502.697 172.354 502.52 172.045 502.334C171.465 501.98 170.277 501.361 169.613 501.066C169.408 500.978 169.174 500.86 169.099 500.82C169.015 500.771 168.818 500.703 168.65 500.673C168.491 500.634 168.332 500.555 168.304 500.506C168.267 500.457 168.154 500.418 168.042 500.418C167.836 500.427 167.836 500.427 168.023 500.536C168.126 500.595 168.229 500.673 168.257 500.712C168.285 500.742 168.491 500.889 168.725 501.037C169.221 501.341 170.128 502.186 170.128 502.343C170.128 502.402 170.062 502.51 169.988 502.579C169.875 502.677 169.604 502.668 168.631 502.54C167.958 502.451 167.312 502.334 167.2 502.284C167.088 502.245 166.761 502.127 166.48 502.039C165.021 501.577 162.084 499.867 161.233 498.993C161.149 498.914 161.055 498.875 161.018 498.914Z" fill="#D5DAEE"/>
				<path id="Vector_39" d="M177.002 503.985C178.751 505.675 183.231 510.479 183.512 510.951C183.624 511.128 183.493 511.324 183.278 511.324C183.175 511.315 182.913 511.236 182.707 511.128C182.501 511.02 182.305 510.941 182.268 510.931C182.146 510.931 181.22 510.312 180.977 510.077C180.696 509.802 180.547 509.782 180.715 510.037C180.986 510.45 182.342 511.855 183.193 512.621C183.577 512.965 184.596 513.702 184.943 513.879C185.504 514.174 185.56 514.223 185.56 514.409C185.56 514.577 185.513 514.586 185.045 514.527C184.765 514.498 184.531 514.498 184.531 514.547C184.531 514.616 185.083 514.901 185.747 515.166C186.233 515.372 187.589 515.343 187.973 515.127C188.141 515.028 188.375 514.96 188.478 514.979C188.684 515.009 188.703 515.038 188.992 515.697C189.348 516.502 190.171 517.612 190.405 517.612C190.452 517.612 190.545 517.671 190.601 517.75C190.713 517.888 191.995 518.251 192.07 518.173C192.098 518.143 191.92 517.966 191.686 517.77C191.031 517.249 190.713 516.758 190.704 516.276C190.704 515.756 190.91 515.333 191.34 514.979C191.967 514.478 192.35 514.341 193.267 514.331C194.015 514.331 194.165 514.351 194.492 514.567C194.698 514.694 194.922 514.871 194.988 514.96C195.166 515.186 195.474 515.932 195.474 516.149C195.474 516.483 195.652 516.345 195.717 515.962C195.848 515.215 195.811 514.409 195.633 514.193C195.381 513.899 194.698 513.712 193.65 513.633C191.864 513.515 190.957 513.201 190.152 512.435C189.32 511.649 189.357 511.56 190.545 511.501C191.387 511.452 192.107 511.295 192.715 511.03C192.818 510.981 193.117 510.843 193.37 510.735C193.632 510.617 194.174 510.352 194.586 510.145C196.157 509.359 197.12 509.124 198.729 509.124C199.898 509.124 200.207 509.055 199.777 508.917C199.674 508.888 199.59 508.809 199.59 508.76C199.59 508.711 199.552 508.672 199.505 508.672C199.431 508.672 198.626 508.161 198.318 507.915C198.177 507.797 197.654 507.502 196.924 507.129C196.569 506.942 196.194 506.746 196.11 506.697C196.017 506.648 195.904 506.608 195.858 506.608C195.811 506.608 195.652 506.559 195.502 506.49C195.119 506.323 194.492 506.137 193.744 505.95C192.79 505.714 189.208 505.724 187.618 505.95C185.251 506.294 184.84 506.333 183.736 506.284C182.604 506.235 182.193 506.156 181.07 505.803C180.388 505.587 180.266 505.537 179.658 505.243C179.424 505.135 179.2 505.036 179.172 505.036C179.134 505.036 178.835 504.859 178.498 504.643C178.161 504.427 177.862 504.25 177.843 504.25C177.797 504.25 177.011 503.69 176.525 503.297C175.889 502.796 176.122 503.13 177.002 503.985Z" fill="#D5DAEE"/>
			</g>
			<g id="layer1">
				<path id="path20173" fill-rule="evenodd" clip-rule="evenodd" d="M118.263 448.271V468.802C118.263 470.942 117.16 472.913 115.383 473.948L102.81 481.286L90.2591 473.95C88.4835 472.913 87.3809 470.944 87.3809 468.806V448.271H118.263ZM110.268 453.281H100.055C97.1379 453.281 94.7521 455.793 94.7521 458.861C94.7521 461.929 97.1379 464.44 100.055 464.44H105.724C106.728 464.44 107.548 465.305 107.548 466.361C107.548 467.418 106.728 468.282 105.724 468.282L95.5095 468.243V471.943H105.724C108.641 471.943 111.029 469.432 111.029 466.364C111.029 463.295 108.641 460.784 105.724 460.784H100.053C99.0489 460.784 98.2288 459.92 98.2288 458.863C98.2288 457.807 99.0489 456.942 100.053 456.942L110.268 456.981V453.283V453.281Z" fill="#D5DAEE"/>
			</g>
			<g id="Group 23">
				<path id="Vector_40" d="M228.457 469.038C228.457 474.328 224.409 478.618 219.414 478.618V459.459C224.407 459.459 228.457 463.748 228.457 469.04V469.038Z" fill="#D5DAEE"/>
				<path id="Vector_41" d="M210.373 469.038C210.373 474.328 214.421 478.619 219.416 478.619V485.841C210.666 485.841 203.572 478.326 203.572 469.057C203.572 459.788 210.666 452.273 219.414 452.273V459.459C214.421 459.459 210.371 463.748 210.371 469.04L210.373 469.038Z" fill="#D5DAEE"/>
			</g>
			<path id="Vector_42" d="M134.324 540.307C136.118 539.648 137.514 537.411 137.85 534.599V533.786H128.651V540.308H134.322L134.324 540.307ZM137.851 521.827V521.092C137.498 518.157 135.998 515.845 134.086 515.301H128.652V521.827L137.851 521.827ZM105.477 533.787V534.592C105.81 537.407 107.206 539.648 109.005 540.308H114.648V533.786L105.477 533.787ZM109.241 515.306C107.331 515.85 105.826 518.164 105.477 521.102V521.833H114.648V515.308L109.241 515.306ZM137.858 524.548H128.659V531.073H137.858V524.548ZM117.159 540.312H126.157V533.789H117.159V540.312ZM126.157 515.301H117.159V521.826H126.157V515.301ZM105.484 531.065H114.656V524.539H105.484V531.065Z" fill="#D5DAEE"/>
			<path id="Vector_43" d="M92.062 93.8424C92.7305 98.1785 89.1855 100.624 85.6405 100.884C83.8325 104.322 80.1103 107.116 74.732 107.116C72.531 107.197 70.3473 106.689 68.3966 105.641C67.9203 105.73 67.4373 105.775 66.9532 105.776C65.0744 105.776 63.7931 105.329 62.5422 103.808C65.0744 100.313 72.7822 94.0293 82.1714 97.2749C87.1902 99.0042 88.4967 94.9381 87.2357 93.4166C82.5057 87.668 71.8099 92.8402 71.4301 93.2764C75.6081 86.4009 90.6288 84.4796 92.062 93.8424ZM77.6693 85.9492C77.6997 85.9492 74.261 84.6457 69.4499 86.8683C69.2561 86.7854 69.0667 86.6918 68.8827 86.5879C73.5064 83.3111 77.5629 81.9143 81.037 82.4335C78.7986 80.4135 76.3475 80.1123 72.7721 80.1123C68.8068 80.1123 65.2921 81.7065 63.0639 84.1732C62.3738 84.0171 61.6688 83.9405 60.9622 83.9447C55.589 83.9447 50.9247 89.1428 51.2033 95.0472C51.4818 100.952 57.5235 104.633 60.9622 103.641C61.0459 103.626 61.1317 103.626 61.2154 103.641C61.975 99.7364 65.0794 90.6539 77.6693 85.9492Z" fill="#D5DAEE"/>
			<g id="Group 24">
				<path id="path268" d="M76.0205 148.261H74.0938V156.262H76.0205V148.261Z" fill="#D5DAEE"/>
				<path id="use360" d="M91.5573 150.553C91.4798 150.511 90.8603 150.126 89.9388 150.126C88.6907 150.126 87.8271 151.034 87.8271 152.26C87.8271 153.449 88.6547 154.396 89.9388 154.396C90.8445 154.396 91.4743 154.019 91.5573 153.971V156.119C91.3181 156.19 90.6608 156.403 89.8002 156.403C87.6343 156.403 85.7344 154.838 85.7344 152.26C85.7344 149.87 87.4554 148.118 89.8002 148.118C90.7071 148.118 91.376 148.349 91.5573 148.405V150.553Z" fill="#D5DAEE"/>
				<path id="path284" d="M71.446 150.553C71.3685 150.511 70.749 150.126 69.8274 150.126C68.5794 150.126 67.7158 151.034 67.7158 152.26C67.7158 153.449 68.5434 154.396 69.8274 154.396C70.7331 154.396 71.363 154.019 71.446 153.971V156.119C71.2067 156.19 70.5494 156.403 69.6889 156.403C67.5229 156.403 65.623 154.838 65.623 152.26C65.623 149.87 67.3441 148.118 69.6889 148.118C70.5958 148.118 71.2647 148.349 71.446 148.405V150.553Z" fill="#D5DAEE"/>
				<path id="path288" d="M97.6182 150.156C96.4751 150.156 95.6262 151.098 95.6262 152.26C95.6262 153.424 96.4751 154.366 97.6182 154.366C98.7601 154.366 99.6115 153.424 99.6115 152.26C99.6115 151.098 98.7601 150.156 97.6182 150.156ZM101.653 152.26C101.653 154.549 99.9667 156.403 97.6182 156.403C95.2698 156.403 93.5859 154.549 93.5859 152.26C93.5859 149.975 95.2698 148.118 97.6182 148.118C99.9667 148.118 101.653 149.975 101.653 152.26Z" fill="#D5DAEE"/>
				<path id="path292" d="M83.3286 150.08C83.2999 150.07 82.4888 149.836 81.8224 149.836C81.0504 149.836 80.6305 150.107 80.6305 150.491C80.6305 150.978 81.1968 151.149 81.5136 151.253L82.0452 151.431C83.2957 151.848 83.8657 152.745 83.8657 153.719C83.8657 155.729 82.1788 156.405 80.7043 156.405C79.6796 156.405 78.7196 156.207 78.625 156.186V154.345C78.7947 154.39 79.6027 154.642 80.4443 154.642C81.4031 154.642 81.8438 154.349 81.8438 153.895C81.8438 153.49 81.4623 153.256 80.9844 153.098C80.8679 153.058 80.6927 153 80.5731 152.959C79.5002 152.603 78.6055 151.943 78.6055 150.618C78.6055 149.122 79.6747 148.117 81.4507 148.117C82.3888 148.117 83.2713 148.356 83.3286 148.372V150.08Z" fill="#D5DAEE"/>
				<g id="g383">
					<path id="path296" d="M63.5793 139.662C63.5793 139.111 63.1497 138.664 62.623 138.664C62.0963 138.664 61.666 139.111 61.666 139.662V141.763C61.666 142.317 62.0963 142.765 62.623 142.765C63.1497 142.765 63.5793 142.317 63.5793 141.763V139.662Z" fill="#D5DAEE"/>
					<path id="path300" d="M68.8332 136.906C68.8332 136.355 68.4036 135.906 67.8769 135.906C67.3496 135.906 66.9199 136.355 66.9199 136.906V141.763C66.9199 142.317 67.3496 142.764 67.8769 142.764C68.4036 142.764 68.8332 142.317 68.8332 141.763V136.906Z" fill="#D5DAEE"/>
					<path id="path304" d="M74.0871 133.134C74.0871 132.582 73.6575 132.135 73.1308 132.135C72.6035 132.135 72.1738 132.582 72.1738 133.134V143.758C72.1738 144.313 72.6035 144.76 73.1308 144.76C73.6575 144.76 74.0871 144.313 74.0871 143.758V133.134Z" fill="#D5DAEE"/>
					<path id="path308" d="M79.343 136.906C79.343 136.355 78.9133 135.906 78.3866 135.906C77.8593 135.906 77.4297 136.355 77.4297 136.906V141.763C77.4297 142.317 77.8593 142.764 78.3866 142.764C78.9133 142.764 79.343 142.317 79.343 141.763V136.906Z" fill="#D5DAEE"/>
					<path id="path312" d="M84.5908 139.662C84.5908 139.111 84.1642 138.664 83.6399 138.664C83.1133 138.664 82.6836 139.111 82.6836 139.662V141.763C82.6836 142.317 83.1133 142.765 83.6399 142.765C84.1642 142.765 84.5908 142.317 84.5908 141.763V139.662Z" fill="#D5DAEE"/>
				</g>
				<g id="use385">
					<path id="path296_2" d="M84.593 139.662C84.593 139.111 84.1633 138.664 83.6366 138.664C83.11 138.664 82.6797 139.111 82.6797 139.662V141.763C82.6797 142.317 83.11 142.765 83.6366 142.765C84.1633 142.765 84.593 142.317 84.593 141.763V139.662Z" fill="#D5DAEE"/>
					<path id="path300_2" d="M89.8469 136.906C89.8469 136.355 89.4172 135.906 88.8906 135.906C88.3632 135.906 87.9336 136.355 87.9336 136.906V141.763C87.9336 142.317 88.3632 142.764 88.8906 142.764C89.4172 142.764 89.8469 142.317 89.8469 141.763V136.906Z" fill="#D5DAEE"/>
					<path id="path304_2" d="M95.1008 133.134C95.1008 132.582 94.6712 132.135 94.1445 132.135C93.6172 132.135 93.1875 132.582 93.1875 133.134V143.758C93.1875 144.313 93.6172 144.76 94.1445 144.76C94.6712 144.76 95.1008 144.313 95.1008 143.758V133.134Z" fill="#D5DAEE"/>
					<path id="path308_2" d="M100.357 136.906C100.357 136.355 99.927 135.906 99.4003 135.906C98.873 135.906 98.4434 136.355 98.4434 136.906V141.763C98.4434 142.317 98.873 142.764 99.4003 142.764C99.927 142.764 100.357 142.317 100.357 141.763V136.906Z" fill="#D5DAEE"/>
					<path id="path312_2" d="M105.604 139.662C105.604 139.111 105.178 138.664 104.654 138.664C104.127 138.664 103.697 139.111 103.697 139.662V141.763C103.697 142.317 104.127 142.765 104.654 142.765C105.178 142.765 105.604 142.317 105.604 141.763V139.662Z" fill="#D5DAEE"/>
				</g>
				<path id="path332" d="M104.506 155.208V155.333H104.166V156.261H104.026V155.333H103.684V155.208H104.506Z" fill="#D5DAEE"/>
				<path id="path336" d="M104.576 155.208H104.795L105.096 156.072H105.101L105.392 155.208H105.607V156.261H105.464V155.398H105.459L105.154 156.261H105.021L104.723 155.398H104.717V156.261H104.576V155.208Z" fill="#D5DAEE"/>
			</g>
		</g>
		<g id="illusRight">
			<path id="Ellipse 220" d="M1565.45 260C1565.45 371.804 1473.92 462.448 1361 462.448C1248.08 462.448 1156.55 371.804 1156.55 260C1156.55 148.196 1248.08 57.5522 1361 57.5522C1473.92 57.5522 1565.45 148.196 1565.45 260Z" stroke="#B6BEDC" stroke-width="1.10431"/>
			<path id="Ellipse 221" d="M1295.5 486C1295.5 528.243 1260.81 562.499 1218 562.499C1175.19 562.499 1140.5 528.243 1140.5 486C1140.5 443.757 1175.19 409.501 1218 409.501C1260.81 409.501 1295.5 443.757 1295.5 486Z" stroke="#B6BEDC" stroke-width="1.00244"/>
			<path id="Ellipse 222" d="M1421.5 579.5C1421.5 629.2 1380.76 669.499 1330.5 669.499C1280.24 669.499 1239.5 629.2 1239.5 579.5C1239.5 529.8 1280.24 489.501 1330.5 489.501C1380.76 489.501 1421.5 529.8 1421.5 579.5Z" stroke="#B6BEDC" stroke-width="1.00244"/>
			<ellipse id="Ellipse 224" opacity="0.5" cx="1268.56" cy="661.563" rx="45.5629" ry="45.5629" fill="#EEF1F9"/>
			<ellipse id="Ellipse 223" opacity="0.5" cx="1166.5" cy="297.5" rx="59.5" ry="59.5" fill="#EEF1F9"/>
			<ellipse id="Ellipse 225" opacity="0.5" cx="1292.64" cy="29.6434" rx="29.6434" ry="29.6434" fill="#EEF1F9"/>
			<g id="Group 22">
				<rect id="Rectangle 59" x="1334" y="132" width="49.5032" height="33.0021" rx="5" fill="#EEF1F9"/>
				<path id="Rectangle 60" d="M1334 137C1334 134.239 1336.24 132 1339 132H1378.5C1381.26 132 1383.5 134.239 1383.5 137V139.543H1334V137Z" fill="#D5DAEE"/>
				<ellipse id="Ellipse 23" cx="1337.96" cy="135.962" rx="1.60411" ry="1.60411" fill="#B6BEDC"/>
				<ellipse id="Ellipse 24" cx="1343.66" cy="135.962" rx="1.60411" ry="1.60411" fill="#B6BEDC"/>
				<ellipse id="Ellipse 25" cx="1349.37" cy="135.962" rx="1.60411" ry="1.60411" fill="#B6BEDC"/>
				<g id="cybersecurity">
					<path id="Vector_44" d="M1380.37 168.947L1390.96 183.369C1391.43 184.004 1392.39 183.722 1392.48 182.934L1393.02 178.503C1393.07 178.021 1393.49 177.68 1393.94 177.716L1398.16 178.115C1398.91 178.186 1399.37 177.292 1398.91 176.669L1387.47 161.024" fill="#B6BEDC"/>
					<path id="Vector_45" d="M1366 168.019L1363.99 187.531C1363.92 188.33 1364.81 188.812 1365.4 188.295L1368.66 185.415C1369 185.098 1369.53 185.145 1369.84 185.497L1372.68 188.788C1373.19 189.376 1374.11 189.047 1374.17 188.259L1375.5 170.24" fill="#B6BEDC"/>
					<path id="Vector_46" d="M1372.43 142.688L1373 142.206C1373.78 141.548 1374.89 141.501 1375.72 142.1L1376.32 142.535C1376.87 142.923 1377.55 143.052 1378.19 142.876L1378.89 142.688C1379.87 142.418 1380.89 142.852 1381.42 143.746L1381.8 144.392C1382.15 144.98 1382.72 145.38 1383.38 145.497L1384.1 145.626C1385.09 145.803 1385.85 146.626 1386 147.672L1386.1 148.424C1386.19 149.106 1386.56 149.729 1387.11 150.105L1387.71 150.528C1388.55 151.116 1388.93 152.197 1388.65 153.208L1388.45 153.949C1388.27 154.619 1388.36 155.336 1388.72 155.911L1389.11 156.558C1389.65 157.451 1389.58 158.603 1388.93 159.414L1388.46 160.002C1388.04 160.531 1387.85 161.224 1387.95 161.918L1388.06 162.67C1388.2 163.716 1387.69 164.739 1386.79 165.197L1386.13 165.527C1385.54 165.832 1385.09 166.385 1384.93 167.055L1384.73 167.795C1384.47 168.818 1383.6 169.523 1382.6 169.558L1381.87 169.582C1381.21 169.605 1380.59 169.923 1380.17 170.463L1379.71 171.051C1379.07 171.862 1378 172.144 1377.07 171.756L1376.4 171.462C1375.78 171.204 1375.1 171.227 1374.51 171.533L1373.86 171.874C1372.96 172.344 1371.88 172.144 1371.17 171.392L1370.67 170.839C1370.21 170.334 1369.57 170.075 1368.91 170.099L1368.19 170.134C1367.18 170.181 1366.26 169.535 1365.92 168.547L1365.68 167.83C1365.46 167.184 1364.97 166.655 1364.36 166.408L1363.68 166.126C1362.74 165.738 1362.15 164.762 1362.22 163.705L1362.28 162.941C1362.32 162.247 1362.09 161.565 1361.63 161.072L1361.11 160.531C1360.41 159.779 1360.25 158.627 1360.72 157.698L1361.07 157.028C1361.38 156.417 1361.43 155.688 1361.19 155.042L1360.93 154.325C1360.58 153.337 1360.88 152.221 1361.67 151.574L1362.24 151.104C1362.77 150.681 1363.08 150.034 1363.13 149.341L1363.17 148.577C1363.23 147.519 1363.93 146.637 1364.92 146.379L1365.62 146.191C1366.26 146.026 1366.81 145.579 1367.11 144.956L1367.45 144.275C1367.91 143.334 1368.9 142.829 1369.89 143.017L1370.6 143.146C1371.25 143.264 1371.92 143.088 1372.44 142.664L1372.43 142.688Z" fill="#D5DAEE"/>
					<ellipse id="Ellipse 26" cx="1372.74" cy="156.86" rx="10.6034" ry="10.6034" fill="#B6BEDC"/>
				</g>
			</g>
			<path id="Vector 5" d="M1258.37 261.236L1257.17 245.241C1257.1 244.378 1258.09 243.846 1258.78 244.376L1271.74 254.409C1272.32 254.86 1272.23 255.766 1271.57 256.095L1268.57 257.591C1268.07 257.838 1267.87 258.441 1268.12 258.935L1270.19 263.066C1270.44 263.55 1270.25 264.14 1269.77 264.396L1267.65 265.534C1267.17 265.792 1266.56 265.615 1266.3 265.136L1263.99 260.96C1263.73 260.484 1263.13 260.306 1262.65 260.559L1259.83 262.046C1259.19 262.381 1258.42 261.954 1258.37 261.236Z" fill="#D5DAEE"/>
			<g id="Group 25_2">
				<path id="Subtract_2" fill-rule="evenodd" clip-rule="evenodd" d="M1258.54 169.18C1260.95 169.18 1262.89 167.232 1262.89 164.829C1262.89 164.117 1262.72 163.445 1262.42 162.852H1270.01V171.157V185H1249.87C1248.76 185 1247.87 184.105 1247.87 183V162.852H1254.67C1254.36 163.445 1254.19 164.117 1254.19 164.829C1254.19 167.232 1256.14 169.18 1258.54 169.18Z" fill="#D5DAEE"/>
				<path id="Union" fill-rule="evenodd" clip-rule="evenodd" d="M1258.15 128H1238C1236.9 128 1236 128.895 1236 130V150.149H1242.8C1242.5 150.742 1242.33 151.414 1242.33 152.126C1242.33 154.529 1244.28 156.476 1246.68 156.476C1249.08 156.476 1251.03 154.529 1251.03 152.126C1251.03 151.414 1250.86 150.742 1250.56 150.149H1258.15V142.555C1258.74 142.858 1259.41 143.03 1260.13 143.03C1262.53 143.03 1264.48 141.082 1264.48 138.679C1264.48 136.276 1262.53 134.328 1260.13 134.328C1259.41 134.328 1258.74 134.499 1258.15 134.803V128Z" fill="#EEF1F9"/>
				<path id="Union_2" fill-rule="evenodd" clip-rule="evenodd" d="M1270.01 162.852H1292.16V171.157V183C1292.16 184.105 1291.27 185 1290.16 185H1270.01V178.989C1269.42 179.292 1268.75 179.463 1268.04 179.463C1265.63 179.463 1263.69 177.515 1263.69 175.113C1263.69 172.71 1265.63 170.762 1268.04 170.762C1268.75 170.762 1269.42 170.933 1270.01 171.236V162.852Z" fill="#B6BEDC"/>
				<path id="Union_3" fill-rule="evenodd" clip-rule="evenodd" d="M1279.83 142.681C1279.83 145.083 1277.89 147.031 1275.48 147.031C1273.08 147.031 1271.13 145.083 1271.13 142.681C1271.13 141.969 1271.3 141.296 1271.61 140.703H1270.01V148.297C1270.61 147.993 1271.28 147.822 1271.99 147.822C1274.39 147.822 1276.34 149.77 1276.34 152.173C1276.34 154.576 1274.39 156.524 1271.99 156.524C1271.28 156.524 1270.61 156.352 1270.01 156.049V162.852H1271.61C1271.3 163.445 1271.13 164.117 1271.13 164.829C1271.13 167.232 1273.08 169.18 1275.48 169.18C1277.89 169.18 1279.83 167.232 1279.83 164.829C1279.83 164.117 1279.66 163.445 1279.36 162.852H1292.16V149.009V142.703C1292.16 141.599 1291.27 140.703 1290.16 140.703H1279.36C1279.66 141.296 1279.83 141.969 1279.83 142.681Z" fill="#D5DAEE"/>
			</g>
			<g id="Group 24_2">
				<path id="Vector_47" d="M1186.45 471.405H1192.52V455.883L1183.86 449.035V468.666C1183.86 470.181 1185.02 471.405 1186.45 471.405Z" fill="#B6BEDC"/>
				<path id="Vector_48" d="M1213.29 471.405H1219.36C1220.79 471.405 1221.95 470.177 1221.95 468.666V449.035L1213.29 455.883" fill="#D5DAEE"/>
				<path id="Vector_49" d="M1213.29 444.013V455.882L1221.95 449.034V445.382C1221.95 441.995 1218.29 440.064 1215.72 442.095" fill="#EEF1F9"/>
				<path id="Vector_50" d="M1192.52 455.883V444.014L1202.91 452.231L1213.29 444.014V455.883L1202.91 464.101" fill="#D1D8F3"/>
				<path id="Vector_51" d="M1183.86 445.382V449.034L1192.52 455.882V444.013L1190.09 442.095C1187.52 440.064 1183.86 441.995 1183.86 445.382Z" fill="#A7B1D7"/>
			</g>
			<g id="Group 23_2">
				<path id="Vector_52" d="M1232.65 516.405C1232.65 516.099 1232.5 515.814 1232.25 515.654H1232.25L1232.23 515.645L1219.29 507.618C1219.23 507.578 1219.17 507.542 1219.11 507.509C1218.61 507.239 1218.02 507.239 1217.52 507.509C1217.46 507.542 1217.4 507.578 1217.34 507.618L1204.4 515.645L1204.38 515.654C1203.99 515.912 1203.86 516.457 1204.11 516.872C1204.18 516.994 1204.28 517.095 1204.4 517.168L1217.35 525.196C1217.4 525.235 1217.46 525.271 1217.52 525.304C1218.02 525.574 1218.62 525.574 1219.12 525.304C1219.18 525.271 1219.23 525.235 1219.29 525.196L1232.24 517.168C1232.5 517.01 1232.65 516.719 1232.65 516.405Z" fill="#8793BF"/>
				<path id="Vector_53" d="M1205.91 511.045H1214.4V519.203H1205.91V511.045ZM1230.91 502.752V499.02C1230.93 498.087 1230.23 497.313 1229.34 497.291H1207.29C1206.4 497.313 1205.69 498.087 1205.71 499.02V502.752L1218.75 506.393L1230.91 502.752Z" fill="#B6BEDC"/>
				<path id="Vector_54" d="M1205.71 502.752H1214.4V510.944H1205.71V502.752Z" fill="#B9C2E4"/>
				<path id="Vector_55" d="M1223.09 502.752H1214.4V510.944L1223.09 519.135H1230.91V510.944L1223.09 502.752Z" fill="#D5DAEE"/>
				<path id="Vector_56" d="M1214.4 510.943H1223.09V519.135H1214.4V510.943Z" fill="#B9C2E4"/>
				<path id="Vector_57" d="M1214.4 519.135H1223.09V527.326H1214.4V519.135Z" fill="#A6B0D4"/>
				<path id="Vector_58" d="M1205.91 519.203H1214.4V526.619H1205.91V519.203Z" fill="#14447D"/>
				<path id="Vector_59" d="M1223.09 519.135H1230.91V527.326H1223.09V519.135Z" fill="#B9C2E4"/>
				<path id="Vector_60" d="M1232.25 517.117L1232.24 517.126L1219.29 524.753C1219.23 524.79 1219.17 524.824 1219.11 524.855C1218.89 524.965 1218.66 525.027 1218.41 525.037L1217.71 524.604C1217.65 524.573 1217.59 524.538 1217.53 524.499L1204.41 516.656H1204.4L1203.97 516.404V531.845C1203.98 532.875 1204.78 533.704 1205.77 533.698H1230.89C1230.9 533.698 1230.91 533.69 1230.93 533.69C1231.14 533.676 1231.34 533.632 1231.54 533.558C1231.62 533.52 1231.7 533.476 1231.78 533.425C1231.84 533.39 1231.94 533.314 1231.94 533.314C1232.39 532.969 1232.65 532.425 1232.65 531.845V516.404C1232.65 516.7 1232.5 516.972 1232.25 517.117Z" fill="url(#paint0_linear_5160_42264)"/>
				<path id="Vector_61" opacity="0.5" d="M1231.96 516.343V517.289L1218.42 527.053L1204.4 516.661C1204.4 516.656 1204.4 516.652 1204.39 516.652L1203.11 515.842V515.159L1203.64 515.15L1204.76 515.824L1204.78 515.833L1204.88 515.897C1204.88 515.897 1218.05 523.77 1218.09 523.788L1218.59 524.097C1218.63 524.079 1218.68 524.061 1218.73 524.043C1218.76 524.025 1231.81 516.334 1231.81 516.334L1231.96 516.343Z" fill="#8893BB"/>
				<path id="Vector_62" d="M1232.25 517.117L1232.24 517.127L1219.29 524.754C1219.23 524.791 1219.17 524.825 1219.11 524.856C1218.61 525.113 1218.02 525.113 1217.52 524.856C1217.46 524.825 1217.4 524.791 1217.35 524.754L1204.4 517.127L1204.38 517.117C1204.13 516.975 1203.98 516.702 1203.97 516.404V531.845C1203.98 532.875 1204.78 533.704 1205.77 533.698H1230.86C1231.84 533.704 1232.64 532.875 1232.65 531.845V516.404C1232.65 516.7 1232.5 516.972 1232.25 517.117Z" fill="#D5DAEE"/>
				<path id="Vector_63" opacity="0.1" d="M1219.48 524.643L1219.28 524.756C1219.23 524.794 1219.17 524.828 1219.11 524.859C1218.9 524.969 1218.67 525.033 1218.43 525.049L1223.35 531.15L1231.95 533.319C1232.18 533.133 1232.37 532.888 1232.49 532.607L1219.48 524.643Z" fill="black"/>
				<path id="Vector_64" opacity="0.05" d="M1220.36 524.125L1219.28 524.756C1219.23 524.793 1219.17 524.828 1219.11 524.859C1218.9 524.968 1218.67 525.033 1218.43 525.048L1220.74 531.713L1231.95 533.316C1232.39 532.969 1232.65 532.424 1232.65 531.845V531.646L1220.36 524.125Z" fill="#B6BEDC"/>
				<path id="Vector_65" d="M1205.79 533.698H1230.86C1231.24 533.7 1231.62 533.572 1231.93 533.334L1217.7 524.606C1217.64 524.574 1217.59 524.54 1217.53 524.501L1204.41 516.657H1204.4L1203.97 516.404V531.792C1203.97 532.843 1204.79 533.697 1205.79 533.698Z" fill="#EEF1F9"/>
				<path id="Vector_66" opacity="0.1" d="M1216.14 506.241V525.655C1216.14 526.335 1215.74 526.947 1215.14 527.202C1214.95 527.286 1214.75 527.329 1214.55 527.329H1203.97V505.482H1205.71V504.572H1214.55C1215.43 504.576 1216.14 505.321 1216.14 506.241Z" fill="#B6BEDC"/>
				<path id="Vector_67" opacity="0.2" d="M1215.27 507.151V526.565C1215.27 526.785 1215.23 527.002 1215.14 527.202C1214.9 527.825 1214.32 528.234 1213.68 528.237H1203.97V505.482H1213.68C1213.93 505.48 1214.18 505.546 1214.4 505.674C1214.94 505.955 1215.27 506.526 1215.27 507.151Z" fill="#B6BEDC"/>
				<path id="Vector_68" opacity="0.2" d="M1215.27 507.151V524.745C1215.27 525.664 1214.56 526.409 1213.68 526.417H1203.97V505.482H1213.68C1213.93 505.48 1214.18 505.546 1214.4 505.674C1214.94 505.955 1215.27 506.526 1215.27 507.151Z" fill="#B6BEDC"/>
				<path id="Vector_69" opacity="0.2" d="M1214.4 507.151V524.744C1214.4 525.665 1213.69 526.412 1212.81 526.416H1203.97V505.482H1212.81C1213.69 505.483 1214.4 506.229 1214.4 507.15C1214.4 507.15 1214.4 507.15 1214.4 507.151Z" fill="#B6BEDC"/>
				<path id="Vector_70" d="M1196.88 505.482H1212.81C1213.69 505.482 1214.4 506.229 1214.4 507.151V523.838C1214.4 524.759 1213.69 525.506 1212.81 525.506H1196.88C1196 525.506 1195.29 524.759 1195.29 523.838V507.151C1195.29 506.229 1196 505.482 1196.88 505.482Z" fill="url(#paint1_linear_5160_42264)"/>
				<path id="Vector_71" d="M1200.26 512.48C1200.66 511.604 1201.29 510.871 1202.08 510.375C1202.96 509.848 1203.96 509.585 1204.97 509.616C1205.91 509.594 1206.84 509.843 1207.65 510.336C1208.41 510.812 1209.03 511.511 1209.42 512.347C1209.85 513.268 1210.06 514.282 1210.04 515.305C1210.06 516.375 1209.84 517.435 1209.4 518.4C1209 519.265 1208.37 519.989 1207.58 520.481C1206.73 520.989 1205.77 521.244 1204.8 521.22C1203.84 521.245 1202.9 520.993 1202.07 520.492C1201.3 520.015 1200.67 519.315 1200.27 518.477C1199.84 517.569 1199.63 516.567 1199.65 515.555C1199.63 514.494 1199.84 513.443 1200.26 512.48ZM1202.2 517.422C1202.41 517.976 1202.77 518.456 1203.23 518.808C1203.69 519.15 1204.25 519.327 1204.83 519.312C1205.43 519.337 1206.03 519.154 1206.53 518.791C1206.99 518.441 1207.33 517.959 1207.53 517.406C1207.74 516.788 1207.85 516.133 1207.84 515.474C1207.85 514.808 1207.75 514.147 1207.54 513.517C1207.36 512.948 1207.03 512.446 1206.58 512.073C1206.09 511.693 1205.5 511.5 1204.89 511.527C1204.31 511.511 1203.73 511.689 1203.25 512.036C1202.79 512.388 1202.42 512.873 1202.21 513.433C1201.74 514.716 1201.73 516.139 1202.2 517.424L1202.2 517.422Z" fill="#EEF1F9"/>
				<path id="Vector_72" d="M1223.09 502.752H1230.91V510.944H1223.09V502.752Z" fill="#EEF1F9"/>
			</g>
			<g id="Group_23">
				<path id="Vector_73" d="M1335.6 543.261C1335.6 545.004 1334.26 546.413 1332.6 546.413C1330.94 546.413 1329.6 545.004 1329.6 543.261C1329.6 541.518 1330.94 540.109 1332.6 540.109H1335.6V543.261ZM1337.1 543.261C1337.1 541.518 1338.44 540.109 1340.1 540.109C1341.76 540.109 1343.1 541.518 1343.1 543.261V551.14C1343.1 552.883 1341.76 554.292 1340.1 554.292C1338.44 554.292 1337.1 552.883 1337.1 551.14V543.261Z" fill="#D5DAEE"/>
				<path id="Vector_74" d="M1340.1 530.606C1338.44 530.606 1337.1 529.197 1337.1 527.454C1337.1 525.711 1338.44 524.303 1340.1 524.303C1341.76 524.303 1343.1 525.711 1343.1 527.454V530.606H1340.1ZM1340.1 532.206C1341.76 532.206 1343.1 533.615 1343.1 535.358C1343.1 537.101 1341.76 538.509 1340.1 538.509H1332.57C1330.91 538.509 1329.57 537.101 1329.57 535.358C1329.57 533.615 1330.91 532.206 1332.57 532.206H1340.1Z" fill="#D5DAEE"/>
				<path id="Vector_75" d="M1352.12 535.358C1352.12 533.615 1353.46 532.206 1355.12 532.206C1356.78 532.206 1358.12 533.615 1358.12 535.358C1358.12 537.101 1356.78 538.509 1355.12 538.509H1352.12V535.358ZM1350.62 535.358C1350.62 537.101 1349.28 538.509 1347.62 538.509C1345.96 538.509 1344.62 537.101 1344.62 535.358V527.454C1344.62 525.711 1345.96 524.303 1347.62 524.303C1349.28 524.303 1350.62 525.711 1350.62 527.454V535.358Z" fill="#D5DAEE"/>
				<path id="Vector_76" d="M1347.62 547.989C1349.28 547.989 1350.62 549.397 1350.62 551.14C1350.62 552.883 1349.28 554.292 1347.62 554.292C1345.96 554.292 1344.62 552.883 1344.62 551.14V547.989H1347.62ZM1347.62 546.413C1345.96 546.413 1344.62 545.004 1344.62 543.261C1344.62 541.518 1345.96 540.109 1347.62 540.109H1355.14C1356.8 540.109 1358.14 541.518 1358.14 543.261C1358.14 545.004 1356.8 546.413 1355.14 546.413H1347.62Z" fill="#D5DAEE"/>
			</g>
			<g id="Group 26_2">
				<path id="Vector_77" d="M1299.58 575.557H1308.93C1309.81 575.557 1310.53 576.307 1310.53 577.233V586.162C1310.53 589.566 1307.89 592.325 1304.65 592.325H1304.62C1301.37 592.325 1298.74 589.566 1298.74 586.163V586.162V576.433C1298.74 575.949 1299.12 575.557 1299.58 575.557Z" fill="#B6BEDC"/>
				<path id="Vector_78" d="M1305.89 573.79C1307.99 573.79 1309.68 572.012 1309.68 569.819C1309.68 567.626 1307.99 565.848 1305.89 565.848C1303.8 565.848 1302.11 567.626 1302.11 569.819C1302.11 572.012 1303.8 573.79 1305.89 573.79Z" fill="#B6BEDC"/>
				<path id="Vector_79" d="M1294.11 573.791C1297.13 573.791 1299.58 571.223 1299.58 568.055C1299.58 564.887 1297.13 562.318 1294.11 562.318C1291.09 562.318 1288.64 564.887 1288.64 568.055C1288.64 571.223 1291.09 573.791 1294.11 573.791Z" fill="#EEF1F9"/>
				<path id="Vector_80" d="M1301.41 575.557H1285.98C1285.1 575.579 1284.41 576.339 1284.43 577.254V587.437C1284.31 592.929 1288.46 597.485 1293.69 597.62C1298.93 597.485 1303.07 592.929 1302.95 587.437V577.254C1302.97 576.339 1302.28 575.579 1301.41 575.557Z" fill="#EEF1F9"/>
				<path id="Vector_81" opacity="0.1" d="M1294.53 575.557V589.827C1294.53 590.482 1294.15 591.069 1293.57 591.319C1293.39 591.4 1293.19 591.442 1292.99 591.442H1285.17C1285.07 591.151 1284.96 590.86 1284.88 590.56C1284.59 589.547 1284.44 588.494 1284.43 587.435V577.251C1284.41 576.337 1285.1 575.579 1285.97 575.557H1294.53Z" fill="#B6BEDC"/>
				<path id="Vector_82" opacity="0.2" d="M1293.69 575.557V590.71C1293.69 590.919 1293.65 591.126 1293.57 591.319C1293.34 591.924 1292.78 592.32 1292.15 592.325H1285.57C1285.43 592.033 1285.29 591.742 1285.17 591.442C1285.06 591.142 1284.96 590.86 1284.88 590.56C1284.59 589.547 1284.44 588.494 1284.43 587.435V577.251C1284.41 576.337 1285.1 575.579 1285.97 575.557H1293.69Z" fill="#B6BEDC"/>
				<path id="Vector_83" opacity="0.2" d="M1293.69 575.557V588.945C1293.69 589.834 1293 590.553 1292.15 590.56H1284.88C1284.59 589.547 1284.44 588.494 1284.43 587.435V577.251C1284.41 576.337 1285.1 575.579 1285.97 575.557H1293.69Z" fill="#B6BEDC"/>
				<path id="Vector_84" opacity="0.2" d="M1292.85 575.557V588.945C1292.84 589.834 1292.16 590.553 1291.31 590.56H1284.88C1284.59 589.547 1284.44 588.494 1284.43 587.435V577.251C1284.41 576.337 1285.1 575.579 1285.97 575.557H1292.85Z" fill="#B6BEDC"/>
				<path id="Vector_85" opacity="0.1" d="M1294.53 570.994V573.774C1294.39 573.783 1294.26 573.792 1294.11 573.792C1293.97 573.792 1293.83 573.783 1293.69 573.774C1293.41 573.754 1293.13 573.707 1292.85 573.633C1291.15 573.209 1289.74 571.956 1289.06 570.261C1288.95 569.977 1288.86 569.681 1288.79 569.379H1292.99C1293.84 569.382 1294.53 570.103 1294.53 570.994Z" fill="#B6BEDC"/>
				<path id="Vector_86" opacity="0.2" d="M1293.69 571.877V573.774C1293.41 573.754 1293.13 573.707 1292.85 573.633C1291.15 573.21 1289.74 571.956 1289.06 570.262H1292.15C1293 570.265 1293.69 570.986 1293.69 571.877Z" fill="#B6BEDC"/>
				<path id="Vector_87" opacity="0.2" d="M1293.69 571.877V573.774C1293.41 573.754 1293.13 573.707 1292.85 573.633C1291.15 573.21 1289.74 571.956 1289.06 570.262H1292.15C1293 570.265 1293.69 570.986 1293.69 571.877Z" fill="#B6BEDC"/>
				<path id="Vector_88" opacity="0.2" d="M1292.85 571.877V573.633C1291.15 573.21 1289.74 571.956 1289.06 570.262H1291.31C1292.16 570.265 1292.85 570.986 1292.85 571.877Z" fill="black"/>
				<path id="Vector_89" d="M1275.88 570.262H1291.31C1292.16 570.262 1292.85 570.986 1292.85 571.879V588.06C1292.85 588.953 1292.16 589.677 1291.31 589.677H1275.88C1275.02 589.677 1274.33 588.953 1274.33 588.06V571.879C1274.33 570.986 1275.02 570.262 1275.88 570.262Z" fill="url(#paint2_linear_5160_42264)"/>
				<path id="Vector_90" d="M1287.65 576.42H1284.57V585.227H1282.6V576.42H1279.53V574.711H1287.65V576.42Z" fill="white"/>
			</g>
			<path id="Union_4" fill-rule="evenodd" clip-rule="evenodd" d="M1346 580C1342.69 580 1340 582.686 1340 586V618C1340 621.314 1342.69 624 1346 624H1359.85C1363.16 624 1365.85 621.314 1365.85 618V586C1365.85 582.686 1363.16 580 1359.85 580H1346ZM1348.24 584H1343V618H1363V584H1358.03C1357.66 584.712 1356.92 585.2 1356.07 585.2H1350.2C1349.35 585.2 1348.6 584.712 1348.24 584ZM1354.85 621.25C1354.85 622.161 1354.11 622.9 1353.2 622.9C1352.29 622.9 1351.55 622.161 1351.55 621.25C1351.55 620.338 1352.29 619.6 1353.2 619.6C1354.11 619.6 1354.85 620.338 1354.85 621.25Z" fill="#D5DAEE"/>
			<g id="Group 1000002978">
				<g id="Group 20">
					<path id="Rectangle 71" d="M1323.47 364.04L1325.94 359.487L1339.99 355.326L1348.05 382.546L1326.98 388.789L1321 368.593L1323.47 364.04Z" fill="#D5DAEE"/>
					<path id="Vector 15" d="M1328.02 366.512L1321 368.593L1325.94 359.487L1328.02 366.512Z" fill="#B6BEDC"/>
				</g>
				<rect id="Rectangle 69" x="1337.23" y="389.211" width="61.3579" height="35.7158" fill="#B6BEDC"/>
				<path id="Rectangle 68" d="M1324.41 393.79L1337.69 388.295V424.011L1324.41 430.421V393.79Z" fill="#A1ACD2"/>
				<rect id="Rectangle 64" x="1324.41" y="393.789" width="61.3579" height="36.6316" fill="#D5DAEE"/>
				<path id="Rectangle 66" d="M1385.77 393.79L1398.59 389.211V424.927L1385.77 430.421V393.79Z" fill="#B6BEDC"/>
				<path id="Rectangle 65" d="M1324.41 393.789H1384.85L1380.73 409.357H1318L1324.41 393.789Z" fill="#EEF1F9"/>
				<path id="Rectangle 67" d="M1384.85 393.79L1398.59 389.211L1405 400.2L1392.18 407.069L1384.85 393.79Z" fill="#EEF1F9"/>
				<g id="SCORM">
					<path d="M1335.58 423.174C1334.21 423.174 1333.08 422.255 1332.91 421L1334.11 420.634C1334.21 421.464 1334.86 422.028 1335.63 422.028C1336.35 422.028 1336.82 421.682 1336.82 421.158C1336.82 419.666 1333.16 420.506 1333.16 417.995C1333.16 416.888 1334.2 416.098 1335.56 416.098C1336.87 416.098 1337.91 416.799 1338.13 417.847L1336.92 418.341C1336.78 417.669 1336.28 417.244 1335.56 417.244C1334.9 417.244 1334.49 417.531 1334.49 417.995C1334.49 419.251 1338.19 418.321 1338.19 421.128C1338.19 422.354 1337.14 423.174 1335.58 423.174Z" fill="#B6BEDC"/>
					<path d="M1344.35 423.174C1342.53 423.174 1340.91 421.978 1340.91 419.636C1340.91 417.294 1342.55 416.098 1344.35 416.098C1346.01 416.098 1347.19 417.007 1347.43 418.401L1346.09 418.677C1345.92 417.798 1345.24 417.254 1344.35 417.254C1343.19 417.254 1342.28 418.084 1342.28 419.636C1342.28 421.188 1343.18 422.008 1344.35 422.008C1345.25 422.008 1345.88 421.514 1346.05 420.703L1347.41 421C1347.07 422.354 1345.94 423.174 1344.35 423.174Z" fill="#B6BEDC"/>
					<path d="M1353.72 423.174C1351.69 423.174 1350.21 421.682 1350.21 419.636C1350.21 417.59 1351.69 416.098 1353.72 416.098C1355.73 416.098 1357.22 417.59 1357.22 419.636C1357.22 421.682 1355.73 423.174 1353.72 423.174ZM1353.72 422.008C1354.97 422.008 1355.86 421.01 1355.86 419.636C1355.86 418.262 1354.97 417.254 1353.72 417.254C1352.46 417.254 1351.56 418.262 1351.56 419.636C1351.56 421.01 1352.46 422.008 1353.72 422.008Z" fill="#B6BEDC"/>
					<path d="M1365.95 423.095H1364.39L1362.73 420.259H1361.65V423.095H1360.3L1360.29 416.177H1362.96C1364.32 416.177 1365.2 416.977 1365.2 418.223C1365.2 419.003 1364.79 419.666 1364.11 420.002L1365.95 423.095ZM1361.65 417.333V419.102H1362.75C1363.45 419.102 1363.84 418.776 1363.84 418.223C1363.84 417.669 1363.45 417.333 1362.75 417.333H1361.65Z" fill="#B6BEDC"/>
					<path d="M1368.8 423.095V416.177H1370.31L1372.42 421.188L1374.54 416.177H1376.05V423.095H1374.79V418.677L1372.93 423.095H1371.92L1370.06 418.677V423.095H1368.8Z" fill="#B6BEDC"/>
				</g>
				<g id="Group 19">
					<path id="Rectangle 70" d="M1332.31 368.107L1334.79 363.554L1348.84 359.392L1356.9 386.612L1335.83 392.855L1329.84 372.659L1332.31 368.107Z" fill="#EEF1F9"/>
					<path id="Vector 14" d="M1336.87 370.578L1329.84 372.659L1334.79 363.554L1336.87 370.578Z" fill="#C3CAE9"/>
				</g>
				<g id="Group 21">
					<rect id="Rectangle 72" x="1369.05" y="348" width="30.1337" height="18.3742" rx="1.28408" transform="rotate(13.6813 1369.05 348)" fill="#EEF1F9"/>
					<path id="Polygon 2" d="M1385.64 359.795C1386 360.135 1385.85 360.736 1385.38 360.877L1378.96 362.783C1378.49 362.923 1378.04 362.498 1378.16 362.018L1379.71 355.507C1379.83 355.027 1380.42 354.851 1380.78 355.191L1385.64 359.795Z" fill="#B6BEDC"/>
					<path id="Line 1" d="M1368.17 364.049L1391.74 369.785" stroke="#B6BEDC" stroke-width="0.642041" stroke-linecap="round"/>
					<path id="Line 2" d="M1369.5 363.238L1368.98 365.381" stroke="#B6BEDC" stroke-width="0.642041" stroke-linecap="round"/>
				</g>
				<path id="Vector 16" d="M1354.35 351.314C1354.35 351.314 1356.15 353.709 1357.59 355.757C1359.04 357.805 1357.42 358.597 1356.23 356.91C1355.04 355.224 1353.24 352.719 1352.05 351.032C1350.86 349.346 1353.49 347.686 1354.68 349.373C1355.87 351.06 1356.26 351.163 1358.76 355.513C1361.26 359.863 1358.3 361.774 1355.36 357.938C1352.42 354.101 1351.87 353.188 1351.87 353.188" stroke="#B6BEDC" stroke-width="0.8" stroke-linecap="round"/>
				<path id="Vector 17" d="M1354.56 372.771C1354.56 372.771 1353.91 375.693 1353.28 378.121C1352.66 380.548 1351.01 379.833 1351.52 377.834C1352.04 375.834 1352.77 372.837 1353.28 370.838C1353.8 368.838 1356.76 369.759 1356.25 371.758C1355.74 373.757 1355.91 374.121 1354.22 378.846C1352.54 383.572 1349.16 382.559 1350.17 377.834C1351.19 373.108 1351.52 372.096 1351.52 372.096" stroke="#B6BEDC" stroke-width="0.8" stroke-linecap="round"/>
				<g id="Group 1000002977">
					<path id="Rectangle 105" d="M1363.84 380.064C1370.05 380.253 1373.24 379.403 1378.5 376.341L1379.8 381.441C1375.11 385.76 1371.86 386.546 1365.14 385.165L1363.84 380.064Z" fill="#D5DAEE"/>
					<path id="Rectangle 106" d="M1370.04 371.801L1383.2 373.433L1372.64 382.018L1358.97 379.585L1370.04 371.801Z" fill="#EEF1F9"/>
					<path id="Vector 18" d="M1371.01 376.209L1377.63 378.259L1379.5 385.591M1379.5 385.591L1378.86 387.109M1379.5 385.591L1379.82 386.866M1379.5 385.591L1380.53 385.667" stroke="#B6BEDC" stroke-width="0.949436" stroke-linecap="round"/>
				</g>
				<ellipse id="Ellipse 226" cx="1387.6" cy="380.968" rx="1.83158" ry="1.83158" fill="#D5DAEE"/>
				<ellipse id="Ellipse 229" cx="1385.31" cy="388.752" rx="2.28947" ry="2.28947" fill="#D5DAEE"/>
				<ellipse id="Ellipse 227" cx="1397.22" cy="378.678" rx="1.37368" ry="1.37368" fill="#D5DAEE"/>
				<ellipse id="Ellipse 228" cx="1342.27" cy="349.374" rx="1.37368" ry="1.37368" fill="#B6BEDC"/>
			</g>
			<g id="Group 1000002982">
				<rect id="Rectangle 108" x="1211.98" y="295" width="48.3622" height="30.307" rx="2.57932" fill="#EEF1F9"/>
				<ellipse id="Ellipse 12" cx="1209.95" cy="302.002" rx="4.42169" ry="4.42169" fill="#B6BEDC"/>
				<g id="Group 1000002979">
					<g id="Group 7">
						<ellipse id="Ellipse 14" cx="1232.65" cy="322.635" rx="4.42169" ry="4.42169" fill="#D5DAEE"/>
					</g>
					<path id="Subtract_3" fill-rule="evenodd" clip-rule="evenodd" d="M1244.08 337.004H1221.15C1222.04 331.47 1226.83 327.24 1232.61 327.24C1238.4 327.24 1243.19 331.47 1244.08 337.004Z" fill="#D5DAEE"/>
				</g>
				<g id="Group 1000002980">
					<g id="Group 7_2">
						<ellipse id="Ellipse 14_2" cx="1251.21" cy="322.635" rx="4.42169" ry="4.42169" fill="#D5DAEE"/>
					</g>
					<path id="Subtract_4" fill-rule="evenodd" clip-rule="evenodd" d="M1262.63 337.004H1239.71C1240.59 331.47 1245.38 327.24 1251.17 327.24C1256.95 327.24 1261.74 331.47 1262.63 337.004Z" fill="#D5DAEE"/>
				</g>
				<path id="Subtract_5" fill-rule="evenodd" clip-rule="evenodd" d="M1205.02 306.699C1203.18 306.699 1198.7 311.425 1198.11 314.667C1197.52 317.91 1199.4 319.633 1200.05 320.149C1200.17 320.249 1200.34 320.396 1200.53 320.574C1201.35 321.313 1202.76 322.594 1204.66 323.373V333.598C1204.66 334.703 1205.17 336.914 1207.24 336.914C1209.3 336.914 1210.06 335.686 1210.18 335.072V334.335C1210.31 335.195 1211.07 336.914 1213.13 336.914C1215.19 336.914 1215.71 335.686 1215.71 335.072V312.226H1220.13H1224.55C1227.13 312.226 1228.53 310.237 1228.24 306.699H1216.63H1205.02ZM1204.88 312.41V318.214C1204.14 317.609 1202.73 316.11 1202.98 314.949C1203.23 313.788 1204.35 312.773 1204.88 312.41Z" fill="#B6BEDC"/>
				<path id="Line 3" d="M1228.02 306.939L1243.5 303.07" stroke="#D5DAEE" stroke-width="1.28966" stroke-linecap="round"/>
			</g>
			<g id="Group 1000002983">
				<rect id="Rectangle 109" x="1330.8" y="246" width="59.8" height="35.65" rx="5" fill="#EEF1F9"/>
				<rect id="Rectangle 110" x="1356.1" y="274.75" width="9.2" height="12.65" fill="#EEF1F9"/>
				<path id="Rectangle 111" d="M1349.2 290.25C1349.2 288.041 1350.99 286.25 1353.2 286.25H1368.2C1370.41 286.25 1372.2 288.041 1372.2 290.25V292H1349.2V290.25Z" fill="#EEF1F9"/>
				<g id="Icon">
					<path fill-rule="evenodd" clip-rule="evenodd" d="M1348.96 264.965C1348.88 263.489 1346.97 263.11 1346.39 264.456C1346.31 264.658 1346.18 264.836 1346.01 264.975C1345.85 265.114 1345.65 265.21 1345.45 265.256C1345.24 265.301 1345.02 265.295 1344.82 265.237C1344.62 265.179 1344.43 265.071 1344.27 264.923C1343.23 263.933 1341.62 265.084 1342.12 266.467C1342.44 267.361 1341.84 268.324 1340.93 268.374C1339.53 268.45 1339.16 270.458 1340.45 271.066C1340.64 271.157 1340.81 271.295 1340.94 271.468C1341.07 271.641 1341.16 271.845 1341.21 272.062C1341.25 272.279 1341.24 272.504 1341.19 272.719C1341.13 272.933 1341.03 273.13 1340.89 273.295C1339.95 274.393 1341.04 276.08 1342.36 275.559C1342.56 275.48 1342.77 275.452 1342.98 275.476C1343.19 275.5 1343.39 275.576 1343.57 275.698C1343.75 275.819 1343.89 275.983 1344 276.175C1344.1 276.368 1344.16 276.584 1344.17 276.805C1344.25 278.281 1346.16 278.66 1346.74 277.314C1346.83 277.111 1346.96 276.934 1347.12 276.795C1347.29 276.656 1347.48 276.56 1347.69 276.515C1347.89 276.469 1348.11 276.476 1348.31 276.534C1348.52 276.592 1348.7 276.699 1348.86 276.848C1349.91 277.838 1351.51 276.686 1351.01 275.303C1350.94 275.095 1350.91 274.872 1350.94 274.652C1350.96 274.431 1351.03 274.219 1351.15 274.034C1351.26 273.848 1351.42 273.693 1351.6 273.583C1351.79 273.472 1351.99 273.409 1352.2 273.397C1353.61 273.321 1353.97 271.313 1352.69 270.705C1352.49 270.613 1352.32 270.475 1352.19 270.302C1352.06 270.129 1351.97 269.926 1351.92 269.708C1351.88 269.491 1351.89 269.266 1351.94 269.052C1352 268.838 1352.1 268.64 1352.24 268.475C1353.18 267.378 1352.09 265.69 1350.77 266.212C1350.57 266.29 1350.36 266.319 1350.15 266.295C1349.94 266.27 1349.74 266.195 1349.56 266.073C1349.39 265.952 1349.24 265.788 1349.13 265.595C1349.03 265.403 1348.97 265.187 1348.96 264.965L1348.96 264.965Z" stroke="#D5DAEE" stroke-width="2"/>
					<path d="M1348.1 271.189C1347.94 272.076 1347.12 272.66 1346.28 272.492C1345.43 272.325 1344.88 271.469 1345.04 270.582C1345.2 269.694 1346.01 269.11 1346.85 269.278C1347.7 269.445 1348.26 270.301 1348.1 271.189Z" stroke="#D5DAEE" stroke-width="2"/>
				</g>
				<g id="Icon_2">
					<path fill-rule="evenodd" clip-rule="evenodd" d="M1335.6 241.044C1335.05 238.688 1331.86 238.688 1331.31 241.044C1331.23 241.398 1331.07 241.727 1330.84 242.004C1330.62 242.28 1330.33 242.497 1330.01 242.637C1329.69 242.776 1329.35 242.834 1329 242.806C1328.66 242.778 1328.32 242.665 1328.02 242.476C1326.05 241.213 1323.8 243.584 1325 245.656C1325.77 246.994 1325.09 248.739 1323.64 249.109C1321.39 249.682 1321.39 253.035 1323.64 253.606C1323.97 253.692 1324.29 253.86 1324.55 254.097C1324.81 254.334 1325.02 254.633 1325.15 254.97C1325.29 255.306 1325.34 255.671 1325.31 256.034C1325.29 256.397 1325.18 256.749 1325 257.06C1323.8 259.132 1326.05 261.502 1328.02 260.24C1328.32 260.05 1328.66 259.936 1329 259.908C1329.35 259.88 1329.69 259.938 1330.01 260.077C1330.34 260.217 1330.62 260.434 1330.85 260.71C1331.07 260.987 1331.23 261.316 1331.31 261.67C1331.86 264.027 1335.05 264.027 1335.59 261.67C1335.68 261.316 1335.84 260.987 1336.06 260.711C1336.29 260.434 1336.57 260.218 1336.89 260.078C1337.21 259.939 1337.56 259.881 1337.91 259.909C1338.25 259.937 1338.59 260.05 1338.88 260.24C1340.85 261.502 1343.11 259.132 1341.91 257.06C1341.73 256.749 1341.62 256.397 1341.59 256.034C1341.57 255.671 1341.62 255.306 1341.75 254.97C1341.89 254.633 1342.09 254.335 1342.36 254.098C1342.62 253.861 1342.93 253.692 1343.27 253.606C1345.51 253.034 1345.51 249.68 1343.27 249.109C1342.93 249.024 1342.62 248.855 1342.36 248.618C1342.09 248.382 1341.89 248.083 1341.75 247.746C1341.62 247.409 1341.57 247.045 1341.59 246.681C1341.62 246.318 1341.73 245.967 1341.91 245.656C1343.11 243.584 1340.85 241.213 1338.88 242.476C1338.59 242.665 1338.25 242.779 1337.9 242.807C1337.56 242.836 1337.21 242.778 1336.89 242.638C1336.57 242.499 1336.29 242.282 1336.06 242.005C1335.84 241.729 1335.68 241.4 1335.59 241.046L1335.6 241.044Z" stroke="#D5DAEE" stroke-width="2"/>
					<path d="M1336.01 251.358C1336.01 252.84 1334.86 254.042 1333.45 254.042C1332.04 254.042 1330.9 252.84 1330.9 251.358C1330.9 249.875 1332.04 248.673 1333.45 248.673C1334.86 248.673 1336.01 249.875 1336.01 251.358Z" stroke="#D5DAEE" stroke-width="2"/>
				</g>
				<rect id="Rectangle 112" x="1355.45" y="268.35" width="30.05" height="8.2" rx="2.5" stroke="#D5DAEE"/>
				<rect id="Rectangle 113" x="1354.95" y="250.6" width="14.95" height="14.95" rx="3" fill="#B6BEDC"/>
				<rect id="Rectangle 114" x="1371.05" y="255.199" width="14.95" height="10.35" rx="3" fill="#D5DAEE"/>
				<rect id="Rectangle 115" x="1371.55" y="241.9" width="13.95" height="11.65" rx="2.5" stroke="#B6BEDC"/>
				<ellipse id="Ellipse 231" cx="1359.55" cy="247.15" rx="1.8" ry="1.8" stroke="#B6BEDC"/>
				<ellipse id="Ellipse 237" cx="1348.05" cy="255.2" rx="1.8" ry="1.8" stroke="#B6BEDC"/>
				<ellipse id="Ellipse 232" cx="1366.45" cy="233.35" rx="1.8" ry="1.8" stroke="#B6BEDC"/>
				<ellipse id="Ellipse 233" cx="1344.6" cy="236.8" rx="1.8" ry="1.8" stroke="#B6BEDC"/>
				<ellipse id="Ellipse 234" cx="1365.3" cy="225.3" rx="1.8" ry="1.8" stroke="#B6BEDC"/>
				<ellipse id="Ellipse 236" cx="1382.55" cy="233.35" rx="1.8" ry="1.8" stroke="#B6BEDC"/>
				<ellipse id="Ellipse 235" cx="1351.5" cy="226.45" rx="1.8" ry="1.8" stroke="#B6BEDC"/>
				<path id="Vector 20" d="M1359.55 244.85V229.45C1359.55 227.793 1358.21 226.45 1356.55 226.45H1353.22" stroke="#B6BEDC"/>
				<path id="Vector 22" d="M1359.55 245.425V239.8C1359.55 238.143 1358.21 236.8 1356.55 236.8H1346.33" stroke="#B6BEDC"/>
				<path id="Vector 23" d="M1374.5 241.975V228.3C1374.5 226.643 1373.16 225.3 1371.5 225.3H1367.03" stroke="#B6BEDC"/>
				<path id="Vector 24" d="M1374.5 241.975V236.35C1374.5 234.693 1375.85 233.35 1377.5 233.35H1380.83" stroke="#B6BEDC"/>
				<path id="Vector 25" d="M1366.45 235.075V246" stroke="#B6BEDC"/>
				<path id="Vector 26" d="M1349.2 255.199H1356.1" stroke="#B6BEDC"/>
			</g>
			<g id="Group 10">
				<ellipse id="Ellipse 17" cx="1207.5" cy="225.5" rx="10.5" ry="10.5" fill="#EEF1F9"/>
				<path id="Icon_3" fill-rule="evenodd" clip-rule="evenodd" d="M1207.8 222.421C1208.26 221.936 1208.89 221.664 1209.54 221.664C1210.19 221.664 1210.82 221.936 1211.28 222.421L1212 223.178L1212.72 222.421C1212.95 222.174 1213.22 221.977 1213.52 221.842C1213.82 221.706 1214.15 221.635 1214.47 221.632C1214.8 221.629 1215.12 221.694 1215.43 221.824C1215.73 221.954 1216 222.146 1216.23 222.389C1216.47 222.632 1216.65 222.921 1216.77 223.238C1216.9 223.556 1216.96 223.897 1216.96 224.24C1216.95 224.583 1216.89 224.923 1216.76 225.238C1216.63 225.554 1216.44 225.839 1216.2 226.077L1212 230.492L1207.8 226.077C1207.34 225.593 1207.08 224.935 1207.08 224.249C1207.08 223.564 1207.34 222.906 1207.8 222.421Z" fill="#D5DAEE"/>
			</g>
			<g id="Group 1000002984">
				<path id="Vector 6" d="M1270.49 389C1270.35 395.61 1266.89 398.831 1265 398.661C1270.59 399.203 1270.49 406.119 1270.49 409C1270.49 401 1273.87 399 1276 398.661C1271.18 397.305 1270.49 391.712 1270.49 389Z" fill="#EEF1F9"/>
				<path id="Vector 7" d="M1283.52 377C1283.33 386.319 1278.58 390.858 1276 390.619C1283.66 391.384 1283.52 401.133 1283.52 405.194C1283.52 393.917 1287.67 391.097 1290.58 390.619C1283.98 388.708 1283.52 380.823 1283.52 377Z" fill="#D5DAEE"/>
			</g>
			<path id="Vector 6_2" d="M1317.49 70C1317.35 76.6102 1313.89 79.8305 1312 79.661C1317.59 80.2034 1317.49 87.1186 1317.49 90C1317.49 82 1320.87 80 1323 79.661C1318.18 78.3051 1317.49 72.7119 1317.49 70Z" fill="#EEF1F9"/>
			<path id="Vector 7_2" d="M1362.49 58C1362.35 64.6102 1358.89 67.8305 1357 67.661C1362.59 68.2034 1362.49 75.1186 1362.49 78C1362.49 70 1365.87 68 1368 67.661C1363.18 66.3051 1362.49 60.7119 1362.49 58Z" fill="#EEF1F9"/>
		</g>
		<g id="cakeCard">
			<g id="card">
				<g id="header">
					<rect id="card_2" y="1" width="348" height="348" rx="19" transform="matrix(0.866025 0.5 -0.866025 0.5 720.975 123.5)" fill="white" stroke="black" stroke-width="2"/>
					<rect id="Rectangle 72_2" width="346" height="2" transform="matrix(0.866025 0.5 -0.866025 0.5 680.199 148)" fill="black"/>
					<g id="dots">
						<ellipse id="Ellipse 201" cx="4" cy="4" rx="4" ry="4" transform="matrix(0.866025 0.5 -0.866025 0.5 707.307 143)" fill="black"/>
						<ellipse id="Ellipse 202" cx="4" cy="4" rx="4" ry="4" transform="matrix(0.866025 0.5 -0.866025 0.5 719.432 150)" fill="black"/>
						<ellipse id="Ellipse 203" cx="4" cy="4" rx="4" ry="4" transform="matrix(0.866025 0.5 -0.866025 0.5 731.555 157)" fill="black"/>
					</g>
				</g>
				<g id="botRow">
					<g id="Frame 1000003012">
						<rect width="90" height="90" rx="12" transform="matrix(0.866025 0.5 -0.866025 0.5 583.256 262.346)" fill="#EEF1F9"/>
					</g>
					<g id="Frame 1000003013">
						<rect width="90" height="90" rx="12" transform="matrix(0.866025 0.5 -0.866025 0.5 702.768 331.346)" fill="#EEF1F9"/>
					</g>
				</g>
				<g id="topRow">
					<g id="Frame 1000003012_2">
						<rect width="90" height="90" rx="12" transform="matrix(0.866025 0.5 -0.866025 0.5 691.721 199.074)" fill="#EEF1F9"/>
					</g>
					<g id="Frame 1000003013_2">
						<rect width="90" height="90" rx="12" transform="matrix(0.866025 0.5 -0.866025 0.5 811.232 268.074)" fill="#EEF1F9"/>
					</g>
				</g>
			</g>
		</g>
	</g>
	<defs>
		<linearGradient id="paint0_linear_5160_42264" x1="1218.31" y1="516.404" x2="1218.31" y2="533.698" gradientUnits="userSpaceOnUse">
			<stop stop-color="#35B8F1"/>
			<stop offset="1" stop-color="#28A8EA"/>
		</linearGradient>
		<linearGradient id="paint1_linear_5160_42264" x1="1198.61" y1="504.179" x2="1211.97" y2="526.274" gradientUnits="userSpaceOnUse">
			<stop stop-color="#EEF1F9"/>
			<stop offset="0.5" stop-color="#D5DAEE"/>
			<stop offset="1" stop-color="#B9C2E4"/>
		</linearGradient>
		<linearGradient id="paint2_linear_5160_42264" x1="1277.55" y1="568.998" x2="1290.51" y2="590.409" gradientUnits="userSpaceOnUse">
			<stop stop-color="#EEF1F9"/>
			<stop offset="0.5" stop-color="#D5DAEE"/>
			<stop offset="1" stop-color="#B6BEDC"/>
		</linearGradient>
		<clipPath id="clip0_5160_42264">
			<rect width="1440" height="737" fill="white"/>
		</clipPath>
	</defs>
</svg>