<svg width="100%" height="100%" viewBox="0 -5 1440 900" fill="none" xmlns="http://www.w3.org/2000/svg">
	<g id="brainFull">
		<rect width="1440" height="733" fill="white"/>
		<g id="brainI1">
			<g id="lBrainI2">
				<g id="left">
					<g id="Brain Neurons">
						<path id="Vector" d="M630.31 247.416C631.577 247.416 632.603 246.389 632.603 245.123C632.603 243.857 631.577 242.83 630.31 242.83C629.044 242.83 628.018 243.857 628.018 245.123C628.018 246.389 629.044 247.416 630.31 247.416Z" fill="#D5DAEE"/>
						<path id="Vector_2" d="M612.144 294.873C613.411 294.873 614.437 293.846 614.437 292.58C614.437 291.314 613.411 290.287 612.144 290.287C610.878 290.287 609.852 291.314 609.852 292.58C609.852 293.846 610.878 294.873 612.144 294.873Z" fill="#D5DAEE"/>
						<path id="Vector_3" d="M676.275 307.48C677.542 307.48 678.568 306.454 678.568 305.187C678.568 303.921 677.542 302.895 676.275 302.895C675.009 302.895 673.982 303.921 673.982 305.187C673.982 306.454 675.009 307.48 676.275 307.48Z" fill="#D5DAEE"/>
						<path id="Vector_4" d="M649.398 355.181C650.665 355.181 651.691 354.155 651.691 352.889C651.691 351.622 650.665 350.596 649.398 350.596C648.132 350.596 647.105 351.622 647.105 352.889C647.105 354.155 648.132 355.181 649.398 355.181Z" fill="#D5DAEE"/>
						<path id="Vector_5" d="M583.266 344.185C584.532 344.185 585.558 343.159 585.558 341.892C585.558 340.626 584.532 339.6 583.266 339.6C581.999 339.6 580.973 340.626 580.973 341.892C580.973 343.159 581.999 344.185 583.266 344.185Z" fill="#D5DAEE"/>
						<path id="Vector_6" d="M603.105 410.279C604.372 410.279 605.398 409.253 605.398 407.986C605.398 406.72 604.372 405.693 603.105 405.693C601.839 405.693 600.812 406.72 600.812 407.986C600.812 409.253 601.839 410.279 603.105 410.279Z" fill="#D5DAEE"/>
						<path id="Vector_7" d="M608.185 447.808C609.452 447.808 610.478 446.782 610.478 445.516C610.478 444.249 609.452 443.223 608.185 443.223C606.919 443.223 605.893 444.249 605.893 445.516C605.893 446.782 606.919 447.808 608.185 447.808Z" fill="#D5DAEE"/>
						<path id="Vector_8" d="M678.859 461.549C680.126 461.549 681.152 460.522 681.152 459.256C681.152 457.989 680.126 456.963 678.859 456.963C677.593 456.963 676.566 457.989 676.566 459.256C676.566 460.522 677.593 461.549 678.859 461.549Z" fill="white"/>
						<path id="Vector_9" d="M656.971 406.344C658.237 406.344 659.263 405.317 659.263 404.051C659.263 402.784 658.237 401.758 656.971 401.758C655.704 401.758 654.678 402.784 654.678 404.051C654.678 405.317 655.704 406.344 656.971 406.344Z" fill="white"/>
						<path id="Vector_10" d="M590.906 388.424C592.172 388.424 593.199 387.397 593.199 386.131C593.199 384.864 592.172 383.838 590.906 383.838C589.64 383.838 588.613 384.864 588.613 386.131C588.613 387.397 589.64 388.424 590.906 388.424Z" fill="white"/>
						<path id="Vector_11" d="M619.32 328.39C620.587 328.39 621.613 327.364 621.613 326.098C621.613 324.831 620.587 323.805 619.32 323.805C618.054 323.805 617.027 324.831 617.027 326.098C617.027 327.364 618.054 328.39 619.32 328.39Z" fill="white"/>
						<path id="Vector_12" d="M658.715 285.496C659.981 285.496 661.008 284.469 661.008 283.203C661.008 281.937 659.981 280.91 658.715 280.91C657.448 280.91 656.422 281.937 656.422 283.203C656.422 284.469 657.448 285.496 658.715 285.496Z" fill="white"/>
						<path id="Vector_13" d="M688.885 229.228C690.151 229.228 691.178 228.202 691.178 226.935C691.178 225.669 690.151 224.643 688.885 224.643C687.618 224.643 686.592 225.669 686.592 226.935C686.592 228.202 687.618 229.228 688.885 229.228Z" fill="white"/>
						<path id="Vector_14" d="M668.297 346.799C669.563 346.799 670.59 345.772 670.59 344.506C670.59 343.239 669.563 342.213 668.297 342.213C667.03 342.213 666.004 343.239 666.004 344.506C666.004 345.772 667.03 346.799 668.297 346.799Z" fill="white"/>
						<path id="Vector_15" d="M685.193 436.912C686.46 436.912 687.486 435.885 687.486 434.619C687.486 433.353 686.46 432.326 685.193 432.326C683.927 432.326 682.9 433.353 682.9 434.619C682.9 435.885 683.927 436.912 685.193 436.912Z" fill="#D5DAEE"/>
						<path id="Vector_16" d="M680.226 260.254C681.493 260.254 682.519 259.227 682.519 257.961C682.519 256.695 681.493 255.668 680.226 255.668C678.96 255.668 677.934 256.695 677.934 257.961C677.934 259.227 678.96 260.254 680.226 260.254Z" fill="#D5DAEE"/>
						<path id="Vector_17" d="M656.681 403.829L619.03 325.912L591.519 282.98L658.714 283.172L667.915 344.184L619.122 325.836L590.977 386.046L656.796 404.31L678.789 459.248L593.185 423.919" stroke="white" stroke-width="2" stroke-miterlimit="10"/>
						<path id="Vector_18" d="M653.77 214.824L688.395 227.326L658.614 283.104L696.082 308.98" stroke="white" stroke-width="2" stroke-miterlimit="10"/>
						<path id="Vector_19" d="M656.628 466.248L607.949 445.393L603.234 407.986" stroke="#D5DAEE" stroke-width="2" stroke-miterlimit="10"/>
						<path id="Vector_20" d="M695.235 339.607L668.122 344.934L656.682 403.83L694.99 379.613" stroke="white" stroke-width="2" stroke-miterlimit="10"/>
						<path id="Vector_21" d="M685.323 434.648L603.234 407.985L649.299 353.102" stroke="#D5DAEE" stroke-width="2" stroke-miterlimit="10"/>
						<path id="Vector_22" d="M668.48 479.37L678.79 459.248" stroke="white" stroke-width="2" stroke-miterlimit="10"/>
						<path id="Vector_23" d="M679.479 258.167L630.097 245.176L612.131 292.8L679.479 258.167Z" stroke="#D5DAEE" stroke-width="2" stroke-miterlimit="10"/>
						<path id="Vector_24" d="M612.008 293.168L601.232 270.119" stroke="#D5DAEE" stroke-width="2" stroke-miterlimit="10"/>
						<path id="Vector_25" d="M582.532 342.756L578.895 358.912" stroke="#D5DAEE" stroke-width="2" stroke-miterlimit="10"/>
						<path id="Vector_26" d="M601.959 407.94L572.178 386.336" stroke="#D5DAEE" stroke-width="2" stroke-miterlimit="10"/>
						<path id="Vector_27" d="M630.102 244.817L677.496 207.953" stroke="#D5DAEE" stroke-width="2" stroke-miterlimit="10"/>
						<path id="Vector_28" d="M603.234 407.986L681.518 366.146L685.323 434.648L607.949 445.393" stroke="#D5DAEE" stroke-width="2" stroke-miterlimit="10"/>
						<path id="Vector_29" d="M657.223 466.225L685.322 434.648L690.573 461.51" stroke="#D5DAEE" stroke-width="2" stroke-miterlimit="10"/>
						<path id="Vector_30" d="M645.174 354.846L573.271 377.076" stroke="#D5DAEE" stroke-width="2" stroke-miterlimit="10"/>
						<path id="Vector_31" d="M635.193 475.494L657.225 466.225L683.314 471.681" stroke="#D5DAEE" stroke-width="2" stroke-miterlimit="10"/>
						<path id="Vector_32" d="M676.658 304.981L694.632 267.758" stroke="#D5DAEE" stroke-width="2" stroke-miterlimit="10"/>
						<path id="Vector_33" d="M681.135 257.228L695.112 249.234" stroke="#D5DAEE" stroke-width="2" stroke-miterlimit="10"/>
						<path id="Vector_34" d="M612.375 292.678L676.047 305.631" stroke="#D5DAEE" stroke-width="2" stroke-miterlimit="10"/>
						<path id="Vector_35" d="M583.258 341.892L612.006 293.168L649.299 353.103L583.258 341.892Z" stroke="#D5DAEE" stroke-width="2" stroke-miterlimit="10"/>
						<path id="Vector_36" d="M676.045 305.631L649.299 353.102L681.517 366.147L676.045 305.631Z" stroke="#D5DAEE" stroke-width="2" stroke-miterlimit="10"/>
						<path id="Vector_37" d="M657.225 468.517C658.491 468.517 659.517 467.491 659.517 466.225C659.517 464.958 658.491 463.932 657.225 463.932C655.958 463.932 654.932 464.958 654.932 466.225C654.932 467.491 655.958 468.517 657.225 468.517Z" fill="#D5DAEE"/>
						<path id="Vector_38" d="M591.664 284.877C592.93 284.877 593.957 283.85 593.957 282.584C593.957 281.318 592.93 280.291 591.664 280.291C590.398 280.291 589.371 281.318 589.371 282.584C589.371 283.85 590.398 284.877 591.664 284.877Z" fill="white"/>
						<path id="Vector_39" d="M681.41 368.105C682.676 368.105 683.703 367.079 683.703 365.812C683.703 364.546 682.676 363.52 681.41 363.52C680.144 363.52 679.117 364.546 679.117 365.812C679.117 367.079 680.144 368.105 681.41 368.105Z" fill="#D5DAEE"/>
						<path id="Vector_40" d="M681.494 365.269L695.112 344.934" stroke="#D5DAEE" stroke-width="2" stroke-miterlimit="10"/>
					</g>
					<g id="Brain Thick Lines">
						<g id="Brain Red Lines">
							<path id="Vector_41" d="M655.015 487.836C647.442 487.836 640.075 485.444 633.114 480.722C625.51 475.563 620.466 469.037 618.426 466.103C614.575 465.224 605.557 462.144 595.821 451.576C584.603 439.394 586.307 424.898 587.866 418.41C583.067 415.567 575.143 409.316 570.58 397.364C563.879 379.811 572.369 365.444 575.334 361.211C574.164 359.95 573.079 358.643 572.109 357.313C564.727 347.173 564.207 335.855 570.596 324.599C573.752 319.043 577.817 314.878 580.247 312.677C579.132 306.411 577.55 291.998 583.403 279.94C588.776 268.882 601.438 264.427 609.386 262.684C608.178 259.597 606.917 254.721 606.711 247.607C606.276 232.942 627.482 222.763 632.342 220.631C644.248 207.739 662.413 203.146 675.488 203.146C678.766 203.146 681.846 203.445 684.406 204.018C697.802 206.998 699.361 221.609 699.422 222.228C699.437 222.35 699.437 222.473 699.437 222.595V438.768C699.56 440.984 699.537 443.246 699.376 445.432C698.574 456.237 693.836 471.315 675.809 481.792C668.908 485.803 661.908 487.836 655.008 487.836H655.015ZM581.042 366.399C578.283 370.625 572.705 381.515 577.71 394.644C582.884 408.2 593.743 412.893 593.85 412.938C595.745 413.718 596.7 415.911 595.974 417.829C595.73 418.486 590.075 434.068 601.431 446.402C611.801 457.659 620.978 458.828 621.07 458.835C622.255 458.958 623.34 459.63 623.959 460.646C624.448 461.441 636.178 480.202 654.908 480.202C660.502 480.202 666.234 478.513 671.957 475.189C688.487 465.583 691.956 451.637 691.925 441.572C691.826 441.229 691.78 440.892 691.78 440.564V438.034C691.284 431.89 689.74 427.626 689.564 427.152C689.503 426.992 682.22 409.102 669.94 406.03C668.954 405.786 668.113 405.167 667.594 404.288C667.067 403.417 666.914 402.385 667.166 401.392C667.594 399.687 669.115 398.495 670.872 398.495C671.185 398.495 671.499 398.533 671.797 398.61C681.074 400.925 687.784 408.827 691.788 415.048V307.137C691.765 307.022 691.757 306.938 691.75 306.846C691.299 300.167 689.289 295.368 685.781 292.587C682.61 290.073 678.858 289.691 676.902 289.691C675.916 289.691 675.297 289.782 675.289 289.782C675.09 289.813 674.892 289.828 674.685 289.828C672.806 289.828 671.216 288.475 670.918 286.618C670.758 285.61 670.994 284.601 671.591 283.776C672.187 282.95 673.073 282.4 674.082 282.24C674.189 282.224 675.228 282.056 676.848 282.056C679.821 282.056 685.56 282.645 690.535 286.603C690.963 286.947 691.383 287.306 691.788 287.688V222.824C691.62 221.563 690.237 213.142 682.74 211.476C680.593 211.002 677.987 210.75 675.205 210.75C665.148 210.75 651.141 213.983 640.931 222.916C655.313 225.858 661.396 237.183 661.664 237.695C662.642 239.56 661.916 241.875 660.051 242.854C659.509 243.136 658.897 243.289 658.286 243.289C656.865 243.289 655.566 242.51 654.901 241.249C654.656 240.79 648.657 229.855 633.809 229.855C632.77 229.855 631.692 229.908 630.615 230.015C630.577 230.015 630.538 230.015 630.5 230.023C615.69 238.085 614.261 244.833 614.33 247.378C614.582 255.86 616.47 260.246 617.509 262.027C622.851 262.959 638.173 266.36 644.882 275.301C653.357 286.596 654.022 295.101 654.343 299.189V299.312C654.381 299.724 654.412 300.091 654.45 300.397C654.58 301.405 654.305 302.407 653.678 303.217C653.051 304.019 652.15 304.539 651.133 304.661C650.973 304.684 650.812 304.691 650.659 304.691C648.741 304.691 647.114 303.255 646.869 301.344C646.816 300.909 646.77 300.381 646.724 299.785C646.441 296.156 645.914 289.408 638.769 279.886C633.251 272.527 617.708 269.791 615.27 269.409C612.649 269.745 595.6 272.321 590.274 283.279C584.175 295.827 588.103 313.067 588.141 313.243C588.485 314.695 587.943 316.231 586.766 317.148C585.872 317.843 564.933 334.464 578.283 352.82C588.569 366.957 608.087 370.129 608.285 370.159C609.294 370.312 610.181 370.847 610.784 371.672C611.388 372.498 611.64 373.506 611.487 374.515C611.205 376.364 609.584 377.763 607.712 377.763C607.514 377.763 607.322 377.748 607.131 377.717C606.535 377.625 592.795 375.455 581.035 366.407L581.042 366.399Z" fill="#D5DAEE"/>
							<path id="Vector_42" d="M650.613 459.837C650.506 459.837 650.406 459.837 650.299 459.822C648.198 459.646 646.631 457.797 646.799 455.695C646.799 455.604 647.411 444.798 638.569 433.48C632.242 425.38 622.819 424.165 617.76 424.165C616.285 424.165 615.391 424.28 615.384 424.28C615.215 424.303 615.047 424.31 614.879 424.31C612.976 424.31 611.349 422.881 611.097 420.994C610.967 419.985 611.234 418.976 611.853 418.166C612.472 417.356 613.374 416.836 614.383 416.699C614.52 416.684 615.812 416.515 617.829 416.515C619.067 416.515 620.32 416.577 621.566 416.699C621.153 411.319 622.101 401.958 630.568 391.404C641.526 377.748 654.976 376.273 660.257 376.273C661.204 376.273 661.816 376.319 662.029 376.342C664.131 376.556 665.659 378.436 665.453 380.53C665.254 382.494 663.627 383.969 661.663 383.969C661.533 383.969 661.403 383.969 661.273 383.946C661.212 383.946 660.83 383.908 660.18 383.908C656.94 383.908 645.668 384.794 636.529 396.18C628.092 406.696 628.803 415.201 629.49 418.319C635.65 420.313 640.732 423.829 644.591 428.765C655.412 442.612 654.464 455.764 654.418 456.322C654.258 458.286 652.584 459.83 650.613 459.83V459.837Z" fill="#D5DAEE"/>
							<path id="Vector_43" d="M625.555 364.138C624.646 364.138 624.088 364.092 623.989 364.085C621.895 363.901 620.336 362.044 620.519 359.943C620.695 357.956 622.33 356.458 624.317 356.458C624.424 356.458 624.539 356.458 624.646 356.473C624.669 356.473 624.959 356.496 625.456 356.496C627.68 356.496 635.321 356.061 640.35 350.497C644.492 345.905 646.02 341.472 646.57 338.981C641.167 338.484 635.917 336.689 630.95 333.64C617.944 325.654 613.619 315.597 612.289 308.567C610.822 300.833 612.564 294.995 612.64 294.75C613.129 293.13 614.604 292.045 616.293 292.045C616.668 292.045 617.042 292.098 617.409 292.213C618.387 292.511 619.189 293.168 619.671 294.07C620.152 294.972 620.252 296.003 619.954 296.982C619.74 297.7 614.956 314.856 634.955 327.136C639.715 330.063 644.721 331.546 649.841 331.546C653.662 331.546 657.613 330.72 661.594 329.085C668.777 326.143 673.584 321.497 673.63 321.451C674.348 320.748 675.304 320.358 676.312 320.358C677.321 320.358 678.307 320.763 679.033 321.497C680.508 322.994 680.5 325.417 679.002 326.899C678.903 326.999 668.777 336.926 654.388 338.836C653.929 342.114 652.24 348.77 646.035 355.648C639.089 363.343 629.407 364.176 625.563 364.176L625.555 364.138Z" fill="#D5DAEE"/>
						</g>
						<g id="Brain White Outline">
							<path id="Vector_44" d="M675.487 204.293C678.758 204.293 681.708 204.591 684.161 205.133C696.747 207.93 698.23 221.754 698.283 222.343C698.291 222.427 698.298 222.511 698.298 222.602V438.775C698.413 440.831 698.413 443.039 698.237 445.355C697.458 455.885 692.834 470.581 675.235 480.813C667.899 485.077 661.098 486.705 655.015 486.705C646.349 486.705 639.112 483.419 633.763 479.789C625.945 474.486 620.879 467.684 619.121 465.094C615.743 464.398 606.619 461.609 596.669 450.811C585.275 438.439 587.69 423.545 589.195 417.867C585.107 415.582 576.434 409.492 571.657 396.967C564.642 378.588 574.821 363.778 576.831 361.119C575.494 359.743 574.225 358.261 573.048 356.641C565.949 346.89 565.452 336.008 571.604 325.164C574.936 319.295 579.337 315.008 581.5 313.097C580.56 308.1 578.42 292.839 584.45 280.436C590.006 268.996 603.982 264.885 610.998 263.517C609.599 260.46 608.101 255.401 607.865 247.568C607.444 233.339 629.094 223.283 633.029 221.578C644.538 208.985 662.504 204.293 675.487 204.293ZM658.293 242.135C657.33 242.135 656.406 241.615 655.924 240.706C655.641 240.171 649.314 228.708 633.816 228.708C632.754 228.708 631.654 228.762 630.507 228.876C630.477 228.876 630.439 228.876 630.408 228.876C630.347 228.876 630.286 228.876 630.225 228.876C622.85 232.858 612.977 239.896 613.199 247.408C613.481 256.922 615.812 261.522 616.813 263.066C621.23 263.8 637.247 267.025 643.972 275.981C652.248 287.008 652.89 295.292 653.204 299.273C653.242 299.762 653.272 300.183 653.318 300.534C653.502 302.001 652.462 303.339 650.995 303.522C650.881 303.537 650.774 303.545 650.659 303.545C649.337 303.545 648.175 302.552 648.007 301.199C647.954 300.779 647.916 300.274 647.87 299.694C647.579 295.949 647.029 288.98 639.693 279.19C633.816 271.357 617.692 268.606 615.292 268.24C612.778 268.545 594.919 271.09 589.249 282.767C582.937 295.766 586.995 313.319 587.033 313.495C587.277 314.519 586.895 315.589 586.07 316.23C585.138 316.956 563.366 334.242 577.366 353.485C587.973 368.065 607.918 371.252 608.117 371.282C609.576 371.504 610.577 372.872 610.356 374.332C610.157 375.654 609.018 376.601 607.712 376.601H607.696C607.567 376.601 607.437 376.594 607.307 376.571C606.573 376.456 592.466 374.202 580.789 364.733C578.665 367.683 570.901 380.002 576.64 395.049C582.035 409.186 593.299 413.947 593.414 413.993C594.751 414.543 595.424 416.064 594.912 417.416C594.659 418.096 588.783 434.343 600.597 447.174C611.372 458.873 620.863 459.959 620.955 459.974C621.788 460.058 622.552 460.532 622.988 461.242C623.622 462.274 635.604 481.348 654.915 481.348C660.257 481.348 666.164 479.889 672.545 476.182C689.487 466.339 693.155 452.08 693.087 441.396C693.002 441.129 692.941 440.854 692.941 440.563V437.988C692.445 431.691 690.832 427.228 690.656 426.755C690.595 426.609 683.16 408.154 670.237 404.93C668.801 404.57 667.93 403.118 668.289 401.689C668.594 400.474 669.687 399.664 670.879 399.664C671.093 399.664 671.315 399.687 671.529 399.741C682.159 402.4 689.334 412.671 692.941 419.235V307.053C692.926 306.961 692.903 306.877 692.895 306.785C692.422 299.778 690.267 294.703 686.499 291.708C683.106 289.01 679.148 288.567 676.909 288.567C675.824 288.567 675.143 288.674 675.121 288.674C674.975 288.697 674.83 288.712 674.693 288.712C673.401 288.712 672.27 287.78 672.056 286.465C671.819 285.006 672.813 283.63 674.272 283.401C674.387 283.378 675.357 283.233 676.863 283.233C679.935 283.233 685.223 283.86 689.839 287.528C690.993 288.445 692.032 289.499 692.949 290.668V222.748C692.804 221.571 691.39 212.225 682.999 210.36C680.798 209.871 678.147 209.604 675.212 209.604C664.078 209.604 648.84 213.455 638.455 223.657C653.907 225.69 660.349 237.634 660.662 238.222C661.35 239.529 660.838 241.149 659.531 241.829C659.134 242.036 658.713 242.135 658.293 242.135ZM675.487 202C662.236 202 643.827 206.646 631.661 219.668C629.3 220.715 623.087 223.68 617.402 228.059C609.347 234.264 605.358 240.851 605.557 247.637C605.717 253.132 606.489 257.893 607.849 261.859C591.251 265.832 584.779 274.483 582.371 279.443C576.556 291.417 577.886 305.585 579.009 312.264C576.495 314.61 572.628 318.691 569.594 324.04C562.969 335.717 563.519 347.463 571.184 357.993C572.009 359.124 572.911 360.24 573.874 361.325C570.473 366.476 562.969 380.659 569.502 397.784C573.965 409.476 581.584 415.865 586.559 418.975C585.023 425.998 583.839 440.273 594.973 452.363C604.571 462.778 613.542 466.095 617.73 467.127C619.954 470.267 624.998 476.618 632.464 481.677C639.616 486.529 647.197 488.99 655.007 488.99C662.114 488.99 669.313 486.904 676.389 482.792C694.852 472.063 699.704 456.604 700.522 445.523C700.69 443.307 700.705 441.014 700.583 438.714V222.602C700.583 222.442 700.576 222.289 700.56 222.129C700.499 221.471 698.849 206.058 684.65 202.902C682.006 202.313 678.834 202.008 675.48 202.008L675.487 202ZM643.437 222.335C653.219 214.701 665.927 211.896 675.212 211.896C677.91 211.896 680.432 212.141 682.495 212.599C689.12 214.074 690.458 221.54 690.649 222.9V285.25C685.552 281.498 679.858 280.917 676.855 280.917C675.143 280.917 674.02 281.093 673.89 281.116C672.591 281.322 671.445 282.033 670.665 283.111C669.886 284.188 669.58 285.503 669.787 286.809C670.176 289.232 672.24 290.982 674.685 290.982C674.952 290.982 675.22 290.959 675.48 290.921C675.48 290.921 676.038 290.844 676.901 290.844C678.705 290.844 682.174 291.188 685.07 293.488C688.31 296.064 690.175 300.588 690.603 306.923C690.611 307.045 690.626 307.16 690.641 307.244V411.364C686.43 405.655 680.225 399.534 672.079 397.494C671.682 397.395 671.277 397.349 670.872 397.349C668.587 397.349 666.608 398.892 666.057 401.109C665.736 402.4 665.935 403.73 666.615 404.868C667.295 406.007 668.38 406.809 669.672 407.13C681.181 410.004 688.234 426.877 688.517 427.565C688.67 427.977 690.167 432.18 690.649 438.065V440.548C690.649 440.93 690.695 441.312 690.794 441.71C690.779 451.468 687.363 464.903 671.391 474.188C665.843 477.413 660.303 479.048 654.915 479.048C636.82 479.048 625.418 460.814 624.936 460.035C624.134 458.721 622.728 457.842 621.184 457.681C621.123 457.674 612.297 456.489 602.278 445.615C591.389 433.793 596.814 418.845 597.051 418.219C598.007 415.689 596.792 412.9 594.277 411.868C594.193 411.83 583.754 407.268 578.78 394.223C574.317 382.539 578.581 372.689 581.347 368.05C593.1 376.632 606.367 378.733 606.955 378.825C607.2 378.863 607.452 378.878 607.689 378.878C610.134 378.878 612.243 377.067 612.61 374.66C612.809 373.353 612.488 372.039 611.701 370.969C610.914 369.899 609.76 369.204 608.445 369.005C608.262 368.975 589.173 365.834 579.2 352.124C573.942 344.895 573.576 337.123 578.1 329.023C581.729 322.527 587.224 318.21 587.461 318.026C588.997 316.842 589.7 314.847 589.249 312.952C589.211 312.792 585.39 295.918 591.297 283.76C596.264 273.528 612.243 270.945 615.247 270.547C618.074 271.006 632.708 273.696 637.851 280.558C644.79 289.813 645.302 296.354 645.577 299.862C645.623 300.435 645.669 300.993 645.73 301.474C646.036 303.95 648.16 305.822 650.651 305.822C650.858 305.822 651.064 305.807 651.27 305.784C652.585 305.624 653.762 304.951 654.572 303.904C655.389 302.857 655.741 301.558 655.58 300.236C655.55 299.969 655.519 299.609 655.489 299.204V299.082C655.152 294.887 654.472 286.152 645.799 274.59C639.066 265.611 624.149 262.057 618.257 260.972C617.318 259.153 615.705 254.958 615.483 247.316C615.346 242.517 621.077 236.48 630.844 231.115C631.852 231.016 632.846 230.97 633.816 230.97C647.984 230.97 653.662 241.317 653.899 241.761C654.755 243.388 656.444 244.405 658.293 244.405C659.088 244.405 659.883 244.206 660.593 243.839C663.023 242.571 663.963 239.56 662.695 237.137C662.435 236.641 656.734 226.026 643.445 222.312L643.437 222.335Z" fill="white"/>
							<path id="Vector_45" d="M660.258 377.42C661.214 377.42 661.802 377.473 661.917 377.481C663.384 377.633 664.454 378.94 664.308 380.407C664.171 381.783 663.017 382.815 661.664 382.815C661.573 382.815 661.481 382.815 661.389 382.799C661.298 382.792 660.87 382.754 660.182 382.754C656.468 382.754 645.013 383.778 635.636 395.454C626.29 407.093 627.765 416.408 628.529 419.213C633.626 420.756 639.22 423.752 643.683 429.468C654.244 442.979 653.319 455.687 653.274 456.222C653.159 457.621 651.99 458.675 650.614 458.675C650.538 458.675 650.461 458.675 650.393 458.668C648.918 458.545 647.825 457.254 647.947 455.779C647.947 455.68 648.681 444.538 639.472 432.762C632.702 424.096 622.469 423.011 617.762 423.011C616.218 423.011 615.271 423.125 615.24 423.133C615.118 423.148 615.003 423.156 614.889 423.156C613.559 423.156 612.42 422.178 612.237 420.833C612.046 419.366 613.07 418.021 614.537 417.83C614.72 417.807 615.936 417.654 617.831 417.654C619.199 417.654 620.918 417.73 622.859 417.99C622.148 412.786 622.584 403.18 631.464 392.107C642.246 378.665 655.612 377.404 660.258 377.404M660.258 375.127C654.817 375.127 640.947 376.64 629.676 390.686C621.629 400.712 620.184 409.737 620.352 415.453C619.512 415.4 618.664 415.369 617.831 415.369C615.729 415.369 614.377 415.545 614.231 415.568C611.519 415.927 609.608 418.426 609.967 421.146C610.296 423.607 612.413 425.464 614.889 425.464C615.103 425.464 615.324 425.449 615.546 425.418C615.546 425.418 616.394 425.319 617.77 425.319C622.614 425.319 631.64 426.473 637.669 434.191C646.205 445.119 645.67 455.542 645.662 455.642C645.441 458.331 647.473 460.739 650.202 460.968C650.347 460.983 650.484 460.983 650.622 460.983C653.182 460.983 655.36 458.981 655.566 456.429C655.612 455.856 656.59 442.268 645.502 428.07C641.627 423.118 636.584 419.549 630.493 417.448C629.92 414.093 629.813 406.397 637.432 396.906C646.251 385.917 657.079 385.061 660.19 385.061C660.801 385.061 661.145 385.092 661.183 385.092C661.328 385.107 661.504 385.115 661.672 385.115C664.224 385.115 666.341 383.197 666.601 380.644C666.876 377.916 664.882 375.478 662.161 375.203C661.917 375.18 661.267 375.127 660.266 375.127H660.258Z" fill="white"/>
							<path id="Vector_46" d="M616.293 293.175C616.553 293.175 616.812 293.214 617.072 293.29C618.486 293.718 619.281 295.216 618.853 296.629C618.631 297.378 613.61 315.352 634.35 328.091C639.318 331.14 644.491 332.668 649.833 332.668C653.814 332.668 657.88 331.82 662.022 330.124C669.465 327.075 674.378 322.291 674.424 322.245C674.944 321.733 675.624 321.473 676.304 321.473C676.992 321.473 677.687 321.741 678.207 322.268C679.246 323.323 679.239 325.011 678.184 326.043C678.031 326.188 667.677 336.222 653.34 337.766C653.126 340.073 651.927 347.348 645.171 354.838C638.508 362.22 629.146 362.984 625.555 362.984C624.714 362.984 624.187 362.946 624.087 362.93C622.613 362.8 621.527 361.501 621.657 360.034C621.78 358.643 622.941 357.596 624.317 357.596C624.393 357.596 624.469 357.596 624.554 357.604C624.584 357.604 624.913 357.627 625.463 357.627C628.107 357.627 635.925 357.1 641.205 351.246C646.348 345.545 647.624 340.073 647.938 337.911C642.764 337.636 637.224 336.123 631.553 332.638C618.899 324.866 614.703 315.13 613.419 308.329C612.006 300.894 613.664 295.292 613.74 295.063C614.092 293.909 615.154 293.168 616.3 293.168M616.293 290.883C614.092 290.883 612.181 292.297 611.539 294.406C611.463 294.658 609.644 300.764 611.165 308.765C612.541 316.017 616.988 326.395 630.354 334.602C635.069 337.498 640.028 339.294 645.133 339.959C644.415 342.412 642.856 345.996 639.501 349.717C634.794 354.937 627.564 355.342 625.463 355.342C624.997 355.342 624.729 355.327 624.722 355.327C624.607 355.319 624.462 355.311 624.317 355.311C621.726 355.311 619.602 357.26 619.372 359.843C619.258 361.165 619.663 362.449 620.511 363.465C621.367 364.482 622.559 365.108 623.881 365.223C623.988 365.23 624.584 365.284 625.547 365.284C629.544 365.284 639.616 364.413 646.868 356.381C652.775 349.832 654.724 343.451 655.366 339.814C669.64 337.59 679.682 327.785 679.789 327.678C681.73 325.753 681.745 322.604 679.827 320.663C678.887 319.708 677.626 319.188 676.289 319.188C674.975 319.188 673.737 319.693 672.804 320.617C672.766 320.655 668.089 325.164 661.143 328.007C657.299 329.581 653.493 330.376 649.825 330.376C644.927 330.376 640.12 328.947 635.543 326.142C616.285 314.313 620.84 297.967 621.046 297.279C621.428 296.026 621.298 294.681 620.671 293.512C620.045 292.342 619.006 291.487 617.737 291.097C617.271 290.952 616.782 290.883 616.293 290.883Z" fill="white"/>
						</g>
					</g>
				</g>
			</g>
			<g id="rBrainI2">
				<g id="right">
					<g id="Outer Elements">
						<path id="Vector_47" d="M819.899 282.5H776.271" stroke="white" stroke-width="2.8" stroke-linecap="round" stroke-linejoin="round"/>
						<g id="Clip path group">
							<mask id="mask0_5110_37054" style="mask-type:luminance" maskUnits="userSpaceOnUse" x="819" y="270" width="22" height="24">
								<g id="clippath">
									<path id="Vector_48" d="M837.948 285.214C835.618 289.807 832.018 292.596 830.207 293.971C828.396 292.596 824.728 289.799 822.397 285.214C819.799 280.086 819.6 275.378 819.661 273.063C821.044 273.109 822.978 273.032 825.194 272.467C827.318 271.932 829 271.129 830.176 270.449C831.353 271.122 833.027 271.924 835.159 272.467C837.375 273.025 839.301 273.109 840.692 273.063C840.753 275.378 840.554 280.086 837.956 285.214H837.948Z" fill="white"/>
								</g>
							</mask>
							<g mask="url(#mask0_5110_37054)">
								<g id="Group">
									<path id="Vector_49" d="M830.208 270.51L830.178 293.887" stroke="white" stroke-width="2.8" stroke-linecap="round" stroke-linejoin="round"/>
								</g>
							</g>
						</g>
						<path id="Vector_50" d="M837.948 285.214C835.618 289.807 832.018 292.596 830.207 293.971C828.396 292.596 824.728 289.799 822.397 285.214C819.799 280.086 819.6 275.378 819.661 273.063C821.044 273.109 822.978 273.032 825.194 272.467C827.318 271.932 829 271.129 830.176 270.449C831.353 271.122 833.027 271.924 835.159 272.467C837.375 273.025 839.301 273.109 840.692 273.063C840.753 275.378 840.554 280.086 837.956 285.214H837.948Z" stroke="white" stroke-width="2.8" stroke-linecap="round" stroke-linejoin="round"/>
						<path id="Vector_51" d="M728.678 274.515V241.846" stroke="white" stroke-width="2.8" stroke-linecap="round" stroke-linejoin="round"/>
						<path id="Vector_52" d="M735.945 223.506H721.823C720.143 223.506 718.781 224.868 718.781 226.547V237.858C718.781 239.537 720.143 240.899 721.823 240.899H735.945C737.625 240.899 738.987 239.537 738.987 237.858V226.547C738.987 224.868 737.625 223.506 735.945 223.506Z" stroke="white" stroke-width="2.8" stroke-miterlimit="10"/>
						<path id="Vector_53" d="M731.283 230.712C731.283 229.39 730.206 228.312 728.884 228.312C727.562 228.312 726.484 229.39 726.484 230.712C726.484 231.683 727.065 232.523 727.898 232.898V235.603C727.898 236.161 728.357 236.619 728.914 236.619C729.472 236.619 729.931 236.161 729.931 235.603V232.867C730.733 232.477 731.283 231.66 731.283 230.712Z" fill="white"/>
						<path id="Vector_54" d="M735.955 222.33V223.224C735.955 223.224 735.955 223.24 735.939 223.24H721.304C721.304 223.24 721.289 223.24 721.289 223.224V222.506C721.289 218.479 724.461 215.078 728.48 215.001C730.559 214.963 732.447 215.788 733.799 217.149C735.129 218.479 735.947 220.305 735.947 222.33H735.955Z" stroke="white" stroke-width="2.8" stroke-miterlimit="10" stroke-linejoin="round"/>
						<path id="Vector_55" d="M775.43 369.396H804.767L834.18 378.941" stroke="white" stroke-width="2.8" stroke-linecap="round" stroke-linejoin="round"/>
						<path id="Vector_56" d="M837.91 371.818C836.985 372.567 836.229 373.522 835.717 374.607C835.204 375.693 834.937 376.885 834.937 378.085C834.937 381.019 834.272 383.915 832.988 386.552M844.062 391.114C845.957 387.041 847.21 379.926 846.927 378.085C846.583 375.807 845.491 373.988 842.862 373.988C839.851 373.988 838.926 377.053 838.926 378.352M836.022 389.265C837.275 387.079 838.17 384.703 838.666 382.234M850.527 382.471C850.71 381.019 850.794 379.552 850.794 378.085C850.794 375.952 849.961 373.912 848.471 372.406C846.981 370.901 844.971 370.053 842.862 370.053C842.533 370.053 842.197 370.068 841.868 370.114M849.701 386.865C849.495 387.675 849.251 388.478 849.006 389.273M839.866 390.518C841.448 387.668 842.869 382.937 842.869 378.13" stroke="white" stroke-width="2.8" stroke-linecap="round" stroke-linejoin="round"/>
						<path id="Vector_57" d="M767.148 417.738V436.446L793.391 457.025" stroke="white" stroke-width="2.8" stroke-linecap="round" stroke-linejoin="round"/>
						<path id="Vector_58" d="M803.774 452.157C803.278 450.109 800.358 450.109 799.854 452.157C799.778 452.463 799.632 452.753 799.426 452.99C799.22 453.235 798.96 453.418 798.67 453.54C798.379 453.663 798.058 453.716 797.745 453.686C797.432 453.663 797.126 453.563 796.851 453.395C795.047 452.295 792.984 454.358 794.084 456.162C794.795 457.323 794.161 458.844 792.839 459.173C790.783 459.669 790.783 462.589 792.839 463.085C793.144 463.162 793.435 463.307 793.672 463.513C793.916 463.72 794.1 463.979 794.222 464.27C794.344 464.56 794.39 464.881 794.367 465.194C794.344 465.508 794.245 465.814 794.077 466.089C792.976 467.892 795.04 469.956 796.843 468.855C797.111 468.687 797.416 468.588 797.737 468.565C798.051 468.542 798.372 468.588 798.662 468.71C798.952 468.832 799.212 469.023 799.418 469.26C799.625 469.505 799.77 469.787 799.846 470.093C800.343 472.149 803.262 472.149 803.767 470.093C803.843 469.787 803.988 469.497 804.195 469.26C804.401 469.016 804.661 468.832 804.951 468.71C805.242 468.588 805.563 468.542 805.876 468.565C806.189 468.588 806.495 468.687 806.77 468.855C808.574 469.956 810.637 467.892 809.537 466.089C809.368 465.821 809.269 465.515 809.246 465.194C809.223 464.881 809.269 464.56 809.391 464.27C809.514 463.979 809.705 463.72 809.942 463.513C810.186 463.307 810.469 463.162 810.775 463.085C812.83 462.589 812.83 459.669 810.775 459.173C810.469 459.096 810.178 458.951 809.942 458.745C809.697 458.538 809.514 458.278 809.391 457.988C809.269 457.698 809.223 457.377 809.246 457.063C809.269 456.75 809.368 456.444 809.537 456.169C810.637 454.366 808.574 452.302 806.77 453.403C806.503 453.571 806.197 453.67 805.876 453.693C805.563 453.716 805.242 453.67 804.951 453.548C804.661 453.426 804.401 453.235 804.195 452.998C803.988 452.753 803.843 452.47 803.767 452.165L803.774 452.157Z" stroke="white" stroke-width="2.8"/>
						<path id="Vector_59" d="M804.15 461.138C804.15 462.429 803.103 463.476 801.811 463.476C800.52 463.476 799.473 462.429 799.473 461.138C799.473 459.846 800.52 458.799 801.811 458.799C803.103 458.799 804.15 459.846 804.15 461.138Z" stroke="white" stroke-width="2.8"/>
						<path id="Vector_60" d="M768.078 276.877V252.904L790.844 241.418" stroke="white" stroke-width="2.8" stroke-linecap="round" stroke-linejoin="round"/>
						<path id="Vector_61" d="M768.078 252.904V229.611" stroke="white" stroke-width="2.8" stroke-miterlimit="10"/>
						<path id="Vector_62" d="M794.611 243.1C797.143 243.1 799.196 241.047 799.196 238.515C799.196 235.983 797.143 233.93 794.611 233.93C792.078 233.93 790.025 235.983 790.025 238.515C790.025 241.047 792.078 243.1 794.611 243.1Z" stroke="white" stroke-width="2.8" stroke-miterlimit="10"/>
						<path id="Vector_63" d="M768.339 229.612C770.871 229.612 772.924 227.559 772.924 225.027C772.924 222.494 770.871 220.441 768.339 220.441C765.807 220.441 763.754 222.494 763.754 225.027C763.754 227.559 765.807 229.612 768.339 229.612Z" stroke="white" stroke-width="2.8" stroke-miterlimit="10"/>
						<path id="Vector_64" d="M775.707 320.449H809.852" stroke="white" stroke-width="2.8" stroke-linecap="round" stroke-linejoin="round"/>
						<path id="Vector_65" d="M791.211 320.771L814.091 346.196H831.896" stroke="white" stroke-width="2.8" stroke-miterlimit="10"/>
						<path id="Vector_66" d="M814.689 324.378C817.221 324.378 819.274 322.325 819.274 319.792C819.274 317.26 817.221 315.207 814.689 315.207C812.156 315.207 810.104 317.26 810.104 319.792C810.104 322.325 812.156 324.378 814.689 324.378Z" stroke="white" stroke-width="2.8" stroke-miterlimit="10"/>
						<path id="Vector_67" d="M836.841 350.528C839.373 350.528 841.426 348.475 841.426 345.943C841.426 343.41 839.373 341.357 836.841 341.357C834.309 341.357 832.256 343.41 832.256 345.943C832.256 348.475 834.309 350.528 836.841 350.528Z" stroke="white" stroke-width="2.8" stroke-miterlimit="10"/>
						<path id="Vector_68" d="M813.846 417.922L805.685 401.484H776.271" stroke="white" stroke-width="2.8" stroke-linecap="round" stroke-linejoin="round"/>
						<path id="Vector_69" d="M816.077 427.069C818.61 427.069 820.663 425.016 820.663 422.484C820.663 419.951 818.61 417.898 816.077 417.898C813.545 417.898 811.492 419.951 811.492 422.484C811.492 425.016 813.545 427.069 816.077 427.069Z" stroke="white" stroke-width="2.8" stroke-miterlimit="10"/>
						<path id="Vector_70" d="M721.953 418.51V444.072" stroke="white" stroke-width="2.8" stroke-linecap="round" stroke-linejoin="round"/>
						<path id="Vector_71" d="M745.995 464.408L745.689 443.889L722.572 429.729" stroke="white" stroke-width="2.8" stroke-miterlimit="10"/>
						<path id="Vector_72" d="M722.251 453.442C724.784 453.442 726.836 451.389 726.836 448.857C726.836 446.324 724.784 444.271 722.251 444.271C719.719 444.271 717.666 446.324 717.666 448.857C717.666 451.389 719.719 453.442 722.251 453.442Z" stroke="white" stroke-width="2.8" stroke-miterlimit="10"/>
						<path id="Vector_73" d="M745.849 474.196C748.381 474.196 750.434 472.143 750.434 469.611C750.434 467.078 748.381 465.025 745.849 465.025C743.317 465.025 741.264 467.078 741.264 469.611C741.264 472.143 743.317 474.196 745.849 474.196Z" stroke="white" stroke-width="2.8" stroke-miterlimit="10"/>
					</g>
					<g id="Whole Chip">
						<path id="Vector_74" d="M703.308 419.726C702.674 419.726 702.162 419.214 702.162 418.58V413.23C702.162 412.596 702.674 412.084 703.308 412.084H771.894V279.781H703.293C702.658 279.781 702.146 279.269 702.146 278.634V273.285C702.146 272.651 702.658 272.139 703.293 272.139H775.715C777.824 272.139 779.536 273.85 779.536 275.96V415.905C779.536 418.014 777.824 419.726 775.715 419.726H703.308Z" fill="#D5DAEE"/>
						<path id="Vector_75" d="M775.714 273.277C777.189 273.277 778.389 274.477 778.389 275.952V415.897C778.389 417.372 777.189 418.572 775.714 418.572H703.308V413.222H773.04V278.626H703.293V273.277H775.714ZM775.714 270.984H703.293C702.024 270.984 701 272.008 701 273.277V278.626C701 279.895 702.024 280.919 703.293 280.919H770.747V410.93H703.308C702.039 410.93 701.015 411.954 701.015 413.222V418.572C701.015 419.84 702.039 420.864 703.308 420.864H775.714C778.45 420.864 780.682 418.633 780.682 415.897V275.952C780.682 273.216 778.45 270.984 775.714 270.984Z" fill="white"/>
						<g id="Group 1000003068">
							<g id="Group 1000003067">
								<path id="Vector_76" d="M705.754 289.447V303.968" stroke="white" stroke-width="3" stroke-linecap="round" stroke-linejoin="round"/>
								<path id="Vector_77" d="M712.99 289.447V303.968" stroke="white" stroke-width="3" stroke-linecap="round" stroke-linejoin="round"/>
								<path id="Vector_78" d="M720.227 289.447V303.968" stroke="white" stroke-width="3" stroke-linecap="round" stroke-linejoin="round"/>
								<path id="Vector_79" d="M727.465 289.447V303.968" stroke="white" stroke-width="3" stroke-linecap="round" stroke-linejoin="round"/>
								<path id="Vector_80" d="M734.701 289.447V303.968" stroke="white" stroke-width="3" stroke-linecap="round" stroke-linejoin="round"/>
								<path id="Vector_81" d="M741.938 289.447V303.968" stroke="white" stroke-width="3" stroke-linecap="round" stroke-linejoin="round"/>
								<path id="Vector_82" d="M705.754 388.402V402.923" stroke="white" stroke-width="3" stroke-linecap="round" stroke-linejoin="round"/>
								<path id="Vector_83" d="M712.99 388.402V402.923" stroke="white" stroke-width="3" stroke-linecap="round" stroke-linejoin="round"/>
								<path id="Vector_84" d="M720.227 388.402V402.923" stroke="white" stroke-width="3" stroke-linecap="round" stroke-linejoin="round"/>
								<path id="Vector_85" d="M727.465 388.402V402.923" stroke="white" stroke-width="3" stroke-linecap="round" stroke-linejoin="round"/>
								<path id="Vector_86" d="M734.701 388.402V402.923" stroke="white" stroke-width="3" stroke-linecap="round" stroke-linejoin="round"/>
								<path id="Vector_87" d="M741.938 388.402V402.923" stroke="white" stroke-width="3" stroke-linecap="round" stroke-linejoin="round"/>
								<path id="Vector_88" d="M762.495 309.996H747.975" stroke="white" stroke-width="3" stroke-linecap="round" stroke-linejoin="round"/>
								<path id="Vector_89" d="M762.495 317.232H747.975" stroke="white" stroke-width="3" stroke-linecap="round" stroke-linejoin="round"/>
								<path id="Vector_90" d="M762.495 324.471H747.975" stroke="white" stroke-width="3" stroke-linecap="round" stroke-linejoin="round"/>
								<path id="Vector_91" d="M762.495 331.707H747.975" stroke="white" stroke-width="3" stroke-linecap="round" stroke-linejoin="round"/>
								<path id="Vector_92" d="M762.495 338.943H747.975" stroke="white" stroke-width="3" stroke-linecap="round" stroke-linejoin="round"/>
								<path id="Vector_93" d="M762.495 346.18H747.975" stroke="white" stroke-width="3" stroke-linecap="round" stroke-linejoin="round"/>
								<path id="Vector_94" d="M762.495 353.418H747.975" stroke="white" stroke-width="3" stroke-linecap="round" stroke-linejoin="round"/>
								<path id="Vector_95" d="M762.495 360.654H747.975" stroke="white" stroke-width="3" stroke-linecap="round" stroke-linejoin="round"/>
								<path id="Vector_96" d="M762.495 367.891H747.975" stroke="white" stroke-width="3" stroke-linecap="round" stroke-linejoin="round"/>
								<path id="Vector_97" d="M762.495 375.135H747.975" stroke="white" stroke-width="3" stroke-linecap="round" stroke-linejoin="round"/>
								<path id="Vector_98" d="M762.495 382.373H747.975" stroke="white" stroke-width="3" stroke-linecap="round" stroke-linejoin="round"/>
								<g id="Vector_99">
									<path d="M703.408 295.4H747.341C752.133 295.4 756.061 299.16 756.061 303.745V388.325C756.061 392.918 752.14 396.67 747.341 396.67H703.408" fill="#D5DAEE"/>
									<path d="M703.408 295.4H747.341C752.133 295.4 756.061 299.16 756.061 303.745V388.325C756.061 392.918 752.14 396.67 747.341 396.67H703.408" stroke="white" stroke-width="3" stroke-miterlimit="10"/>
								</g>
							</g>
							<g id="Vector_100">
								<path d="M703.33 310.951H729.778C736.457 310.951 741.921 316.109 741.921 322.414V369.641C741.921 375.945 736.457 381.103 729.778 381.103H703.322" fill="#D5DAEE"/>
								<path d="M703.33 310.951H729.778C736.457 310.951 741.921 316.109 741.921 322.414V369.641C741.921 375.945 736.457 381.103 729.778 381.103H703.322" stroke="white" stroke-width="5.9526" stroke-linejoin="round"/>
							</g>
						</g>
					</g>
				</g>
			</g>
		</g>
	</g>
</svg>